G04 (created by PCBNEW (2013-07-07 BZR 4022)-stable) date 4/24/2014 11:59:52 PM*
%MOIN*%
G04 Gerber Fmt 3.4, Leading zero omitted, Abs format*
%FSLAX34Y34*%
G01*
G70*
G90*
G04 APERTURE LIST*
%ADD10C,0.000787402*%
%ADD11C,0.005*%
%ADD12C,0.011811*%
%ADD13C,0.00787402*%
%ADD14C,0.0001*%
G04 APERTURE END LIST*
G54D10*
G54D11*
X80066Y-56091D02*
X80066Y-55741D01*
X79899Y-56091D02*
X79899Y-55741D01*
X79783Y-55991D01*
X79666Y-55741D01*
X79666Y-56091D01*
X79499Y-55741D02*
X79499Y-56025D01*
X79483Y-56058D01*
X79466Y-56075D01*
X79433Y-56091D01*
X79366Y-56091D01*
X79333Y-56075D01*
X79316Y-56058D01*
X79299Y-56025D01*
X79299Y-55741D01*
X79166Y-55858D02*
X79100Y-56091D01*
X79033Y-55925D01*
X78966Y-56091D01*
X78900Y-55858D01*
X78633Y-56075D02*
X78666Y-56091D01*
X78733Y-56091D01*
X78766Y-56075D01*
X78783Y-56041D01*
X78783Y-55908D01*
X78766Y-55875D01*
X78733Y-55858D01*
X78666Y-55858D01*
X78633Y-55875D01*
X78616Y-55908D01*
X78616Y-55941D01*
X78783Y-55975D01*
X78316Y-56091D02*
X78316Y-55908D01*
X78333Y-55875D01*
X78366Y-55858D01*
X78433Y-55858D01*
X78466Y-55875D01*
X78316Y-56075D02*
X78350Y-56091D01*
X78433Y-56091D01*
X78466Y-56075D01*
X78483Y-56041D01*
X78483Y-56008D01*
X78466Y-55975D01*
X78433Y-55958D01*
X78350Y-55958D01*
X78316Y-55941D01*
X78150Y-56091D02*
X78150Y-55858D01*
X78150Y-55925D02*
X78133Y-55891D01*
X78116Y-55875D01*
X78083Y-55858D01*
X78050Y-55858D01*
X77700Y-55858D02*
X77616Y-56091D01*
X77533Y-55858D01*
X77216Y-56091D02*
X77416Y-56091D01*
X77316Y-56091D02*
X77316Y-55741D01*
X77350Y-55791D01*
X77383Y-55825D01*
X77416Y-55841D01*
G54D12*
X79646Y-57998D02*
X79253Y-58589D01*
X79253Y-57998D02*
X79646Y-58589D01*
X80050Y-57707D02*
X80050Y-57989D01*
X80246Y-57398D02*
X80050Y-57707D01*
X79853Y-57398D01*
G54D13*
X78950Y-57150D02*
X78650Y-57150D01*
X78950Y-56850D02*
X78950Y-57150D01*
X78950Y-57150D02*
X78950Y-56850D01*
X79310Y-57150D02*
G75*
G03X79310Y-57150I-360J0D01*
G74*
G01*
X79050Y-58250D02*
X78950Y-58350D01*
X78850Y-58250D02*
X79050Y-58250D01*
X78950Y-58350D02*
X78850Y-58250D01*
X80050Y-57250D02*
X80150Y-57150D01*
X80050Y-57050D02*
X80050Y-57250D01*
X80150Y-57150D02*
X80050Y-57050D01*
X78950Y-57150D02*
X78950Y-58350D01*
X80150Y-57150D02*
X78950Y-57150D01*
X78950Y-57150D02*
X80150Y-57150D01*
G54D11*
X81138Y-57071D02*
X81109Y-57080D01*
X81061Y-57080D01*
X81042Y-57071D01*
X81033Y-57061D01*
X81023Y-57042D01*
X81023Y-57023D01*
X81033Y-57004D01*
X81042Y-56995D01*
X81061Y-56985D01*
X81100Y-56976D01*
X81119Y-56966D01*
X81128Y-56957D01*
X81138Y-56938D01*
X81138Y-56919D01*
X81128Y-56900D01*
X81119Y-56890D01*
X81100Y-56880D01*
X81052Y-56880D01*
X81023Y-56890D01*
X80938Y-57080D02*
X80938Y-56880D01*
X80890Y-56880D01*
X80861Y-56890D01*
X80842Y-56909D01*
X80833Y-56928D01*
X80823Y-56966D01*
X80823Y-56995D01*
X80833Y-57033D01*
X80842Y-57052D01*
X80861Y-57071D01*
X80890Y-57080D01*
X80938Y-57080D01*
X80747Y-57023D02*
X80652Y-57023D01*
X80766Y-57080D02*
X80700Y-56880D01*
X80633Y-57080D01*
X80461Y-57080D02*
X80576Y-57080D01*
X80519Y-57080D02*
X80519Y-56880D01*
X80538Y-56909D01*
X80557Y-56928D01*
X80576Y-56938D01*
X81138Y-57571D02*
X81109Y-57580D01*
X81061Y-57580D01*
X81042Y-57571D01*
X81033Y-57561D01*
X81023Y-57542D01*
X81023Y-57523D01*
X81033Y-57504D01*
X81042Y-57495D01*
X81061Y-57485D01*
X81100Y-57476D01*
X81119Y-57466D01*
X81128Y-57457D01*
X81138Y-57438D01*
X81138Y-57419D01*
X81128Y-57400D01*
X81119Y-57390D01*
X81100Y-57380D01*
X81052Y-57380D01*
X81023Y-57390D01*
X80938Y-57580D02*
X80938Y-57380D01*
X80890Y-57380D01*
X80861Y-57390D01*
X80842Y-57409D01*
X80833Y-57428D01*
X80823Y-57466D01*
X80823Y-57495D01*
X80833Y-57533D01*
X80842Y-57552D01*
X80861Y-57571D01*
X80890Y-57580D01*
X80938Y-57580D01*
X80747Y-57523D02*
X80652Y-57523D01*
X80766Y-57580D02*
X80700Y-57380D01*
X80633Y-57580D01*
X80576Y-57400D02*
X80566Y-57390D01*
X80547Y-57380D01*
X80499Y-57380D01*
X80480Y-57390D01*
X80471Y-57400D01*
X80461Y-57419D01*
X80461Y-57438D01*
X80471Y-57466D01*
X80585Y-57580D01*
X80461Y-57580D01*
X81133Y-58071D02*
X81104Y-58080D01*
X81057Y-58080D01*
X81038Y-58071D01*
X81028Y-58061D01*
X81019Y-58042D01*
X81019Y-58023D01*
X81028Y-58004D01*
X81038Y-57995D01*
X81057Y-57985D01*
X81095Y-57976D01*
X81114Y-57966D01*
X81123Y-57957D01*
X81133Y-57938D01*
X81133Y-57919D01*
X81123Y-57900D01*
X81114Y-57890D01*
X81095Y-57880D01*
X81047Y-57880D01*
X81019Y-57890D01*
X80819Y-58061D02*
X80828Y-58071D01*
X80857Y-58080D01*
X80876Y-58080D01*
X80904Y-58071D01*
X80923Y-58052D01*
X80933Y-58033D01*
X80942Y-57995D01*
X80942Y-57966D01*
X80933Y-57928D01*
X80923Y-57909D01*
X80904Y-57890D01*
X80876Y-57880D01*
X80857Y-57880D01*
X80828Y-57890D01*
X80819Y-57900D01*
X80638Y-58080D02*
X80733Y-58080D01*
X80733Y-57880D01*
X80466Y-58080D02*
X80580Y-58080D01*
X80523Y-58080D02*
X80523Y-57880D01*
X80542Y-57909D01*
X80561Y-57928D01*
X80580Y-57938D01*
X81138Y-58571D02*
X81109Y-58580D01*
X81061Y-58580D01*
X81042Y-58571D01*
X81033Y-58561D01*
X81023Y-58542D01*
X81023Y-58523D01*
X81033Y-58504D01*
X81042Y-58495D01*
X81061Y-58485D01*
X81100Y-58476D01*
X81119Y-58466D01*
X81128Y-58457D01*
X81138Y-58438D01*
X81138Y-58419D01*
X81128Y-58400D01*
X81119Y-58390D01*
X81100Y-58380D01*
X81052Y-58380D01*
X81023Y-58390D01*
X80938Y-58580D02*
X80938Y-58380D01*
X80890Y-58380D01*
X80861Y-58390D01*
X80842Y-58409D01*
X80833Y-58428D01*
X80823Y-58466D01*
X80823Y-58495D01*
X80833Y-58533D01*
X80842Y-58552D01*
X80861Y-58571D01*
X80890Y-58580D01*
X80938Y-58580D01*
X80747Y-58523D02*
X80652Y-58523D01*
X80766Y-58580D02*
X80700Y-58380D01*
X80633Y-58580D01*
X80576Y-58400D02*
X80566Y-58390D01*
X80547Y-58380D01*
X80499Y-58380D01*
X80480Y-58390D01*
X80471Y-58400D01*
X80461Y-58419D01*
X80461Y-58438D01*
X80471Y-58466D01*
X80585Y-58580D01*
X80461Y-58580D01*
X76652Y-56390D02*
X76671Y-56380D01*
X76700Y-56380D01*
X76728Y-56390D01*
X76747Y-56409D01*
X76757Y-56428D01*
X76766Y-56466D01*
X76766Y-56495D01*
X76757Y-56533D01*
X76747Y-56552D01*
X76728Y-56571D01*
X76700Y-56580D01*
X76680Y-56580D01*
X76652Y-56571D01*
X76642Y-56561D01*
X76642Y-56495D01*
X76680Y-56495D01*
X76557Y-56580D02*
X76557Y-56380D01*
X76442Y-56580D01*
X76442Y-56380D01*
X76347Y-56580D02*
X76347Y-56380D01*
X76300Y-56380D01*
X76271Y-56390D01*
X76252Y-56409D01*
X76242Y-56428D01*
X76233Y-56466D01*
X76233Y-56495D01*
X76242Y-56533D01*
X76252Y-56552D01*
X76271Y-56571D01*
X76300Y-56580D01*
X76347Y-56580D01*
X76766Y-55880D02*
X76700Y-56080D01*
X76633Y-55880D01*
X76452Y-56061D02*
X76461Y-56071D01*
X76490Y-56080D01*
X76509Y-56080D01*
X76538Y-56071D01*
X76557Y-56052D01*
X76566Y-56033D01*
X76576Y-55995D01*
X76576Y-55966D01*
X76566Y-55928D01*
X76557Y-55909D01*
X76538Y-55890D01*
X76509Y-55880D01*
X76490Y-55880D01*
X76461Y-55890D01*
X76452Y-55900D01*
X76252Y-56061D02*
X76261Y-56071D01*
X76290Y-56080D01*
X76309Y-56080D01*
X76338Y-56071D01*
X76357Y-56052D01*
X76366Y-56033D01*
X76376Y-55995D01*
X76376Y-55966D01*
X76366Y-55928D01*
X76357Y-55909D01*
X76338Y-55890D01*
X76309Y-55880D01*
X76290Y-55880D01*
X76261Y-55890D01*
X76252Y-55900D01*
X76888Y-58571D02*
X76859Y-58580D01*
X76811Y-58580D01*
X76792Y-58571D01*
X76783Y-58561D01*
X76773Y-58542D01*
X76773Y-58523D01*
X76783Y-58504D01*
X76792Y-58495D01*
X76811Y-58485D01*
X76850Y-58476D01*
X76869Y-58466D01*
X76878Y-58457D01*
X76888Y-58438D01*
X76888Y-58419D01*
X76878Y-58400D01*
X76869Y-58390D01*
X76850Y-58380D01*
X76802Y-58380D01*
X76773Y-58390D01*
X76688Y-58580D02*
X76688Y-58380D01*
X76640Y-58380D01*
X76611Y-58390D01*
X76592Y-58409D01*
X76583Y-58428D01*
X76573Y-58466D01*
X76573Y-58495D01*
X76583Y-58533D01*
X76592Y-58552D01*
X76611Y-58571D01*
X76640Y-58580D01*
X76688Y-58580D01*
X76497Y-58523D02*
X76402Y-58523D01*
X76516Y-58580D02*
X76450Y-58380D01*
X76383Y-58580D01*
X76326Y-58400D02*
X76316Y-58390D01*
X76297Y-58380D01*
X76249Y-58380D01*
X76230Y-58390D01*
X76221Y-58400D01*
X76211Y-58419D01*
X76211Y-58438D01*
X76221Y-58466D01*
X76335Y-58580D01*
X76211Y-58580D01*
X76883Y-58071D02*
X76854Y-58080D01*
X76807Y-58080D01*
X76788Y-58071D01*
X76778Y-58061D01*
X76769Y-58042D01*
X76769Y-58023D01*
X76778Y-58004D01*
X76788Y-57995D01*
X76807Y-57985D01*
X76845Y-57976D01*
X76864Y-57966D01*
X76873Y-57957D01*
X76883Y-57938D01*
X76883Y-57919D01*
X76873Y-57900D01*
X76864Y-57890D01*
X76845Y-57880D01*
X76797Y-57880D01*
X76769Y-57890D01*
X76569Y-58061D02*
X76578Y-58071D01*
X76607Y-58080D01*
X76626Y-58080D01*
X76654Y-58071D01*
X76673Y-58052D01*
X76683Y-58033D01*
X76692Y-57995D01*
X76692Y-57966D01*
X76683Y-57928D01*
X76673Y-57909D01*
X76654Y-57890D01*
X76626Y-57880D01*
X76607Y-57880D01*
X76578Y-57890D01*
X76569Y-57900D01*
X76388Y-58080D02*
X76483Y-58080D01*
X76483Y-57880D01*
X76216Y-58080D02*
X76330Y-58080D01*
X76273Y-58080D02*
X76273Y-57880D01*
X76292Y-57909D01*
X76311Y-57928D01*
X76330Y-57938D01*
X76888Y-57571D02*
X76859Y-57580D01*
X76811Y-57580D01*
X76792Y-57571D01*
X76783Y-57561D01*
X76773Y-57542D01*
X76773Y-57523D01*
X76783Y-57504D01*
X76792Y-57495D01*
X76811Y-57485D01*
X76850Y-57476D01*
X76869Y-57466D01*
X76878Y-57457D01*
X76888Y-57438D01*
X76888Y-57419D01*
X76878Y-57400D01*
X76869Y-57390D01*
X76850Y-57380D01*
X76802Y-57380D01*
X76773Y-57390D01*
X76688Y-57580D02*
X76688Y-57380D01*
X76640Y-57380D01*
X76611Y-57390D01*
X76592Y-57409D01*
X76583Y-57428D01*
X76573Y-57466D01*
X76573Y-57495D01*
X76583Y-57533D01*
X76592Y-57552D01*
X76611Y-57571D01*
X76640Y-57580D01*
X76688Y-57580D01*
X76497Y-57523D02*
X76402Y-57523D01*
X76516Y-57580D02*
X76450Y-57380D01*
X76383Y-57580D01*
X76326Y-57400D02*
X76316Y-57390D01*
X76297Y-57380D01*
X76249Y-57380D01*
X76230Y-57390D01*
X76221Y-57400D01*
X76211Y-57419D01*
X76211Y-57438D01*
X76221Y-57466D01*
X76335Y-57580D01*
X76211Y-57580D01*
X76888Y-57071D02*
X76859Y-57080D01*
X76811Y-57080D01*
X76792Y-57071D01*
X76783Y-57061D01*
X76773Y-57042D01*
X76773Y-57023D01*
X76783Y-57004D01*
X76792Y-56995D01*
X76811Y-56985D01*
X76850Y-56976D01*
X76869Y-56966D01*
X76878Y-56957D01*
X76888Y-56938D01*
X76888Y-56919D01*
X76878Y-56900D01*
X76869Y-56890D01*
X76850Y-56880D01*
X76802Y-56880D01*
X76773Y-56890D01*
X76688Y-57080D02*
X76688Y-56880D01*
X76640Y-56880D01*
X76611Y-56890D01*
X76592Y-56909D01*
X76583Y-56928D01*
X76573Y-56966D01*
X76573Y-56995D01*
X76583Y-57033D01*
X76592Y-57052D01*
X76611Y-57071D01*
X76640Y-57080D01*
X76688Y-57080D01*
X76497Y-57023D02*
X76402Y-57023D01*
X76516Y-57080D02*
X76450Y-56880D01*
X76383Y-57080D01*
X76211Y-57080D02*
X76326Y-57080D01*
X76269Y-57080D02*
X76269Y-56880D01*
X76288Y-56909D01*
X76307Y-56928D01*
X76326Y-56938D01*
X81052Y-56390D02*
X81071Y-56380D01*
X81100Y-56380D01*
X81128Y-56390D01*
X81147Y-56409D01*
X81157Y-56428D01*
X81166Y-56466D01*
X81166Y-56495D01*
X81157Y-56533D01*
X81147Y-56552D01*
X81128Y-56571D01*
X81100Y-56580D01*
X81080Y-56580D01*
X81052Y-56571D01*
X81042Y-56561D01*
X81042Y-56495D01*
X81080Y-56495D01*
X80957Y-56580D02*
X80957Y-56380D01*
X80842Y-56580D01*
X80842Y-56380D01*
X80747Y-56580D02*
X80747Y-56380D01*
X80700Y-56380D01*
X80671Y-56390D01*
X80652Y-56409D01*
X80642Y-56428D01*
X80633Y-56466D01*
X80633Y-56495D01*
X80642Y-56533D01*
X80652Y-56552D01*
X80671Y-56571D01*
X80700Y-56580D01*
X80747Y-56580D01*
X81166Y-55880D02*
X81100Y-56080D01*
X81033Y-55880D01*
X80852Y-56061D02*
X80861Y-56071D01*
X80890Y-56080D01*
X80909Y-56080D01*
X80938Y-56071D01*
X80957Y-56052D01*
X80966Y-56033D01*
X80976Y-55995D01*
X80976Y-55966D01*
X80966Y-55928D01*
X80957Y-55909D01*
X80938Y-55890D01*
X80909Y-55880D01*
X80890Y-55880D01*
X80861Y-55890D01*
X80852Y-55900D01*
X80652Y-56061D02*
X80661Y-56071D01*
X80690Y-56080D01*
X80709Y-56080D01*
X80738Y-56071D01*
X80757Y-56052D01*
X80766Y-56033D01*
X80776Y-55995D01*
X80776Y-55966D01*
X80766Y-55928D01*
X80757Y-55909D01*
X80738Y-55890D01*
X80709Y-55880D01*
X80690Y-55880D01*
X80661Y-55890D01*
X80652Y-55900D01*
G54D14*
G36*
X78108Y-58680D02*
X78101Y-58677D01*
X78088Y-58668D01*
X78068Y-58655D01*
X78045Y-58640D01*
X78021Y-58624D01*
X78002Y-58611D01*
X77988Y-58602D01*
X77983Y-58599D01*
X77980Y-58600D01*
X77969Y-58606D01*
X77953Y-58614D01*
X77943Y-58619D01*
X77928Y-58625D01*
X77921Y-58627D01*
X77920Y-58625D01*
X77914Y-58613D01*
X77906Y-58594D01*
X77895Y-58568D01*
X77882Y-58538D01*
X77868Y-58506D01*
X77855Y-58473D01*
X77842Y-58442D01*
X77830Y-58413D01*
X77821Y-58390D01*
X77815Y-58374D01*
X77812Y-58367D01*
X77813Y-58366D01*
X77820Y-58359D01*
X77833Y-58349D01*
X77861Y-58326D01*
X77889Y-58292D01*
X77906Y-58253D01*
X77911Y-58209D01*
X77907Y-58169D01*
X77891Y-58131D01*
X77864Y-58096D01*
X77831Y-58070D01*
X77793Y-58054D01*
X77750Y-58049D01*
X77709Y-58053D01*
X77670Y-58069D01*
X77635Y-58095D01*
X77620Y-58112D01*
X77600Y-58148D01*
X77588Y-58185D01*
X77587Y-58194D01*
X77589Y-58236D01*
X77601Y-58276D01*
X77623Y-58311D01*
X77653Y-58340D01*
X77657Y-58343D01*
X77671Y-58354D01*
X77681Y-58361D01*
X77688Y-58367D01*
X77635Y-58494D01*
X77627Y-58514D01*
X77612Y-58549D01*
X77600Y-58579D01*
X77589Y-58603D01*
X77582Y-58619D01*
X77579Y-58625D01*
X77579Y-58625D01*
X77574Y-58626D01*
X77565Y-58623D01*
X77547Y-58614D01*
X77535Y-58608D01*
X77522Y-58602D01*
X77516Y-58599D01*
X77510Y-58602D01*
X77497Y-58610D01*
X77479Y-58623D01*
X77456Y-58638D01*
X77434Y-58653D01*
X77414Y-58666D01*
X77400Y-58676D01*
X77393Y-58679D01*
X77392Y-58679D01*
X77385Y-58676D01*
X77374Y-58666D01*
X77357Y-58650D01*
X77332Y-58626D01*
X77328Y-58622D01*
X77308Y-58602D01*
X77292Y-58584D01*
X77281Y-58572D01*
X77277Y-58567D01*
X77277Y-58567D01*
X77281Y-58560D01*
X77290Y-58545D01*
X77303Y-58525D01*
X77319Y-58501D01*
X77361Y-58440D01*
X77338Y-58383D01*
X77331Y-58365D01*
X77322Y-58343D01*
X77315Y-58328D01*
X77312Y-58321D01*
X77305Y-58319D01*
X77290Y-58315D01*
X77267Y-58311D01*
X77239Y-58306D01*
X77213Y-58301D01*
X77190Y-58296D01*
X77173Y-58293D01*
X77165Y-58292D01*
X77163Y-58290D01*
X77162Y-58287D01*
X77161Y-58279D01*
X77160Y-58264D01*
X77160Y-58242D01*
X77160Y-58209D01*
X77160Y-58206D01*
X77160Y-58175D01*
X77161Y-58150D01*
X77162Y-58135D01*
X77163Y-58128D01*
X77163Y-58128D01*
X77170Y-58126D01*
X77187Y-58123D01*
X77210Y-58118D01*
X77238Y-58113D01*
X77240Y-58113D01*
X77268Y-58107D01*
X77291Y-58102D01*
X77308Y-58099D01*
X77315Y-58096D01*
X77316Y-58094D01*
X77322Y-58083D01*
X77330Y-58066D01*
X77339Y-58045D01*
X77348Y-58023D01*
X77356Y-58003D01*
X77361Y-57989D01*
X77363Y-57982D01*
X77363Y-57982D01*
X77359Y-57975D01*
X77349Y-57961D01*
X77335Y-57941D01*
X77319Y-57917D01*
X77318Y-57915D01*
X77302Y-57891D01*
X77289Y-57871D01*
X77280Y-57857D01*
X77277Y-57851D01*
X77277Y-57850D01*
X77282Y-57843D01*
X77294Y-57830D01*
X77312Y-57812D01*
X77332Y-57791D01*
X77339Y-57785D01*
X77362Y-57762D01*
X77378Y-57748D01*
X77388Y-57740D01*
X77392Y-57738D01*
X77393Y-57738D01*
X77400Y-57742D01*
X77415Y-57752D01*
X77435Y-57766D01*
X77459Y-57782D01*
X77460Y-57783D01*
X77484Y-57799D01*
X77504Y-57813D01*
X77518Y-57822D01*
X77524Y-57825D01*
X77525Y-57825D01*
X77534Y-57823D01*
X77551Y-57817D01*
X77572Y-57809D01*
X77594Y-57800D01*
X77614Y-57792D01*
X77628Y-57785D01*
X77635Y-57781D01*
X77636Y-57781D01*
X77638Y-57772D01*
X77642Y-57754D01*
X77647Y-57730D01*
X77653Y-57701D01*
X77654Y-57697D01*
X77659Y-57668D01*
X77663Y-57645D01*
X77667Y-57629D01*
X77668Y-57622D01*
X77672Y-57622D01*
X77686Y-57621D01*
X77707Y-57620D01*
X77733Y-57620D01*
X77759Y-57620D01*
X77785Y-57620D01*
X77807Y-57621D01*
X77823Y-57622D01*
X77830Y-57624D01*
X77830Y-57624D01*
X77832Y-57633D01*
X77836Y-57650D01*
X77841Y-57675D01*
X77847Y-57704D01*
X77848Y-57709D01*
X77853Y-57737D01*
X77858Y-57760D01*
X77861Y-57776D01*
X77863Y-57782D01*
X77865Y-57783D01*
X77877Y-57789D01*
X77896Y-57796D01*
X77919Y-57806D01*
X77973Y-57828D01*
X78039Y-57782D01*
X78045Y-57778D01*
X78069Y-57762D01*
X78089Y-57749D01*
X78103Y-57740D01*
X78108Y-57737D01*
X78109Y-57737D01*
X78115Y-57743D01*
X78128Y-57755D01*
X78146Y-57773D01*
X78167Y-57793D01*
X78183Y-57809D01*
X78201Y-57827D01*
X78212Y-57840D01*
X78219Y-57848D01*
X78221Y-57853D01*
X78220Y-57856D01*
X78216Y-57863D01*
X78206Y-57877D01*
X78193Y-57898D01*
X78177Y-57921D01*
X78163Y-57941D01*
X78149Y-57963D01*
X78140Y-57979D01*
X78136Y-57986D01*
X78137Y-57990D01*
X78142Y-58003D01*
X78150Y-58022D01*
X78160Y-58046D01*
X78183Y-58098D01*
X78217Y-58105D01*
X78238Y-58109D01*
X78267Y-58114D01*
X78295Y-58120D01*
X78339Y-58128D01*
X78340Y-58287D01*
X78333Y-58290D01*
X78327Y-58292D01*
X78311Y-58296D01*
X78288Y-58300D01*
X78261Y-58305D01*
X78237Y-58310D01*
X78214Y-58314D01*
X78197Y-58317D01*
X78190Y-58319D01*
X78188Y-58321D01*
X78182Y-58333D01*
X78174Y-58351D01*
X78165Y-58372D01*
X78155Y-58395D01*
X78147Y-58415D01*
X78141Y-58431D01*
X78139Y-58439D01*
X78142Y-58445D01*
X78151Y-58459D01*
X78164Y-58479D01*
X78180Y-58502D01*
X78196Y-58525D01*
X78209Y-58545D01*
X78219Y-58559D01*
X78222Y-58566D01*
X78220Y-58570D01*
X78211Y-58581D01*
X78194Y-58599D01*
X78168Y-58625D01*
X78163Y-58629D01*
X78143Y-58649D01*
X78125Y-58665D01*
X78113Y-58676D01*
X78108Y-58680D01*
X78108Y-58680D01*
G37*
M02*
