G04 (created by PCBNEW (2013-07-07 BZR 4022)-stable) date 4/24/2014 11:59:52 PM*
%MOIN*%
G04 Gerber Fmt 3.4, Leading zero omitted, Abs format*
%FSLAX34Y34*%
G01*
G70*
G90*
G04 APERTURE LIST*
%ADD10C,0.000787402*%
%ADD11R,0.05X0.038*%
%ADD12R,0.0236X0.0157*%
%ADD13C,0.028*%
%ADD14R,0.0137795X0.0334646*%
%ADD15R,0.0334646X0.0137795*%
%ADD16R,0.0314X0.0314*%
%ADD17C,0.027*%
%ADD18C,0.006*%
%ADD19C,0.01*%
%ADD20C,0.012*%
G04 APERTURE END LIST*
G54D10*
G54D11*
X80650Y-55950D03*
X80650Y-56450D03*
X80650Y-56950D03*
X80650Y-57550D03*
X80650Y-58050D03*
X80650Y-58550D03*
G54D12*
X77150Y-57773D03*
X77150Y-58127D03*
X79850Y-58227D03*
X79850Y-57873D03*
X76550Y-56177D03*
X76550Y-55823D03*
X77100Y-56177D03*
X77100Y-55823D03*
X79400Y-56423D03*
X79400Y-56777D03*
X79850Y-57123D03*
X79850Y-57477D03*
X77650Y-56023D03*
X77650Y-56377D03*
G54D13*
X81450Y-56000D03*
X81450Y-56500D03*
X81450Y-57000D03*
X81450Y-57500D03*
X81450Y-58000D03*
X81450Y-58500D03*
X75950Y-56000D03*
X75950Y-56500D03*
X75950Y-57000D03*
X75950Y-57500D03*
X75950Y-58000D03*
X75950Y-58500D03*
G54D14*
X78842Y-56922D03*
X78645Y-56922D03*
X78448Y-56922D03*
X78251Y-56922D03*
X78054Y-56922D03*
X77857Y-56922D03*
X77857Y-58477D03*
X78054Y-58477D03*
X78251Y-58477D03*
X78448Y-58477D03*
X78645Y-58477D03*
X78842Y-58477D03*
G54D15*
X77572Y-57207D03*
X77572Y-57404D03*
X77572Y-57601D03*
X77572Y-57798D03*
X77572Y-57995D03*
X77572Y-58192D03*
X79127Y-58192D03*
X79127Y-57995D03*
X79127Y-57798D03*
X79127Y-57601D03*
X79127Y-57404D03*
X79127Y-57207D03*
G54D11*
X76600Y-56650D03*
X76600Y-57150D03*
X76600Y-57650D03*
G54D16*
X78970Y-56001D03*
X78380Y-56001D03*
G54D17*
X80050Y-56800D03*
X79400Y-56000D03*
X78650Y-57800D03*
X76700Y-58100D03*
G54D18*
X77050Y-57200D02*
X77000Y-57150D01*
X77050Y-57350D02*
X77050Y-57200D01*
X77301Y-57601D02*
X77050Y-57350D01*
X77572Y-57601D02*
X77301Y-57601D01*
X77000Y-57150D02*
X76600Y-57150D01*
X80650Y-58050D02*
X80250Y-58050D01*
X80127Y-57477D02*
X79850Y-57477D01*
X80200Y-57550D02*
X80127Y-57477D01*
X80200Y-58000D02*
X80200Y-57550D01*
X80250Y-58050D02*
X80200Y-58000D01*
X79127Y-57404D02*
X79777Y-57404D01*
X79777Y-57404D02*
X79850Y-57477D01*
X81450Y-58000D02*
X81000Y-57550D01*
X81000Y-57550D02*
X80650Y-57550D01*
X81450Y-58500D02*
X81400Y-58550D01*
X81400Y-58550D02*
X80650Y-58550D01*
G54D19*
X80650Y-56450D02*
X79900Y-56450D01*
X79573Y-56777D02*
X79400Y-56777D01*
X79900Y-56450D02*
X79573Y-56777D01*
G54D18*
X79400Y-56777D02*
X79400Y-56935D01*
X79400Y-56935D02*
X79127Y-57207D01*
X81450Y-57000D02*
X81400Y-57000D01*
X81000Y-55950D02*
X80650Y-55950D01*
X81100Y-56050D02*
X81000Y-55950D01*
X81100Y-56700D02*
X81100Y-56050D01*
X81400Y-57000D02*
X81100Y-56700D01*
X81450Y-57500D02*
X80900Y-56950D01*
X80900Y-56950D02*
X80650Y-56950D01*
G54D19*
X78448Y-56922D02*
X78448Y-57201D01*
X77250Y-57323D02*
X77200Y-57273D01*
X77100Y-56650D02*
X76600Y-56650D01*
X77200Y-56750D02*
X77100Y-56650D01*
X77200Y-57273D02*
X77200Y-56750D01*
X77331Y-57404D02*
X77250Y-57323D01*
X77250Y-57323D02*
X77250Y-57323D01*
X77572Y-57404D02*
X77331Y-57404D01*
X79850Y-57123D02*
X79850Y-57000D01*
X79850Y-57000D02*
X80050Y-56800D01*
X77572Y-57404D02*
X77960Y-57404D01*
X79400Y-56423D02*
X78577Y-56423D01*
X78245Y-57404D02*
X77960Y-57404D01*
X78448Y-57201D02*
X78245Y-57404D01*
X78448Y-56551D02*
X78448Y-57201D01*
X78577Y-56423D02*
X78448Y-56551D01*
X79400Y-56000D02*
X79400Y-56423D01*
X79398Y-56001D02*
X78970Y-56001D01*
X79400Y-56000D02*
X79398Y-56001D01*
X77857Y-58477D02*
X77857Y-58222D01*
X77857Y-58222D02*
X77960Y-58120D01*
X77960Y-58120D02*
X77960Y-57404D01*
G54D20*
X76550Y-55823D02*
X77100Y-55823D01*
X75950Y-56000D02*
X76127Y-55823D01*
X76127Y-55823D02*
X76550Y-55823D01*
G54D19*
X78842Y-57592D02*
X78842Y-57607D01*
X78501Y-57948D02*
X78650Y-57800D01*
X78501Y-57948D02*
X78501Y-57951D01*
X78842Y-57607D02*
X78650Y-57800D01*
X76700Y-58100D02*
X77123Y-58100D01*
X76600Y-58000D02*
X76700Y-58100D01*
X76600Y-57650D02*
X76600Y-58000D01*
X77123Y-58100D02*
X77150Y-58127D01*
X77572Y-57995D02*
X77281Y-57995D01*
X77281Y-57995D02*
X77150Y-58127D01*
X78842Y-56922D02*
X78842Y-57592D01*
X78842Y-57592D02*
X78851Y-57601D01*
X78645Y-58477D02*
X78645Y-58095D01*
X78645Y-58095D02*
X78501Y-57951D01*
X79127Y-57601D02*
X78851Y-57601D01*
X78251Y-58201D02*
X78251Y-58477D01*
X78501Y-57951D02*
X78251Y-58201D01*
X79850Y-57873D02*
X79723Y-57873D01*
X79451Y-57601D02*
X79127Y-57601D01*
X79723Y-57873D02*
X79451Y-57601D01*
G54D20*
X78645Y-58477D02*
X78842Y-58477D01*
X77100Y-56177D02*
X77300Y-56377D01*
X77300Y-56377D02*
X77650Y-56377D01*
X76550Y-56177D02*
X77100Y-56177D01*
X75950Y-56500D02*
X76273Y-56177D01*
X76273Y-56177D02*
X76550Y-56177D01*
G54D19*
X77650Y-56023D02*
X78359Y-56023D01*
X78359Y-56023D02*
X78380Y-56001D01*
G54D18*
X77572Y-57798D02*
X77175Y-57798D01*
X77175Y-57798D02*
X77150Y-57773D01*
X79127Y-57995D02*
X79445Y-57995D01*
X79677Y-58227D02*
X79850Y-58227D01*
X79445Y-57995D02*
X79677Y-58227D01*
M02*
