G04 (created by PCBNEW (2013-07-07 BZR 4022)-stable) date 4/24/2014 11:59:52 PM*
%MOIN*%
G04 Gerber Fmt 3.4, Leading zero omitted, Abs format*
%FSLAX34Y34*%
G01*
G70*
G90*
G04 APERTURE LIST*
%ADD10C,0.000787402*%
%ADD11R,0.051X0.039*%
%ADD12R,0.0246X0.0167*%
%ADD13C,0.029*%
%ADD14R,0.0147795X0.0344646*%
%ADD15R,0.0344646X0.0147795*%
%ADD16R,0.0324X0.0324*%
G04 APERTURE END LIST*
G54D10*
G54D11*
X80650Y-55950D03*
X80650Y-56450D03*
X80650Y-56950D03*
X80650Y-57550D03*
X80650Y-58050D03*
X80650Y-58550D03*
G54D12*
X77150Y-57773D03*
X77150Y-58127D03*
X79850Y-58227D03*
X79850Y-57873D03*
X76550Y-56177D03*
X76550Y-55823D03*
X77100Y-56177D03*
X77100Y-55823D03*
X79400Y-56423D03*
X79400Y-56777D03*
X79850Y-57123D03*
X79850Y-57477D03*
X77650Y-56023D03*
X77650Y-56377D03*
G54D13*
X81450Y-56000D03*
X81450Y-56500D03*
X81450Y-57000D03*
X81450Y-57500D03*
X81450Y-58000D03*
X81450Y-58500D03*
X75950Y-56000D03*
X75950Y-56500D03*
X75950Y-57000D03*
X75950Y-57500D03*
X75950Y-58000D03*
X75950Y-58500D03*
G54D14*
X78842Y-56922D03*
X78645Y-56922D03*
X78448Y-56922D03*
X78251Y-56922D03*
X78054Y-56922D03*
X77857Y-56922D03*
X77857Y-58477D03*
X78054Y-58477D03*
X78251Y-58477D03*
X78448Y-58477D03*
X78645Y-58477D03*
X78842Y-58477D03*
G54D15*
X77572Y-57207D03*
X77572Y-57404D03*
X77572Y-57601D03*
X77572Y-57798D03*
X77572Y-57995D03*
X77572Y-58192D03*
X79127Y-58192D03*
X79127Y-57995D03*
X79127Y-57798D03*
X79127Y-57601D03*
X79127Y-57404D03*
X79127Y-57207D03*
G54D11*
X76600Y-56650D03*
X76600Y-57150D03*
X76600Y-57650D03*
G54D16*
X78970Y-56001D03*
X78380Y-56001D03*
M02*
