G04 (created by PCBNEW (2013-07-07 BZR 4022)-stable) date 4/24/2014 11:59:52 PM*
%MOIN*%
G04 Gerber Fmt 3.4, Leading zero omitted, Abs format*
%FSLAX34Y34*%
G01*
G70*
G90*
G04 APERTURE LIST*
%ADD10C,0.000787402*%
%ADD11C,0.00787402*%
%ADD12C,0.005*%
%ADD13C,0.0028*%
%ADD14C,0.00590551*%
%ADD15C,0.01*%
G04 APERTURE END LIST*
G54D10*
G54D11*
X78750Y-56000D02*
X78750Y-56000D01*
G54D12*
X80050Y-57007D02*
X80040Y-56997D01*
X80030Y-56978D01*
X80030Y-56930D01*
X80040Y-56911D01*
X80050Y-56902D01*
X80069Y-56892D01*
X80088Y-56892D01*
X80116Y-56902D01*
X80230Y-57016D01*
X80230Y-56892D01*
X80230Y-55892D02*
X80230Y-56007D01*
X80230Y-55950D02*
X80030Y-55950D01*
X80059Y-55969D01*
X80078Y-55988D01*
X80088Y-56007D01*
X80230Y-57492D02*
X80230Y-57607D01*
X80230Y-57550D02*
X80030Y-57550D01*
X80059Y-57569D01*
X80078Y-57588D01*
X80088Y-57607D01*
X80050Y-58607D02*
X80040Y-58597D01*
X80030Y-58578D01*
X80030Y-58530D01*
X80040Y-58511D01*
X80050Y-58502D01*
X80069Y-58492D01*
X80088Y-58492D01*
X80116Y-58502D01*
X80230Y-58616D01*
X80230Y-58492D01*
X80221Y-58288D02*
X80230Y-58259D01*
X80230Y-58211D01*
X80221Y-58192D01*
X80211Y-58183D01*
X80192Y-58173D01*
X80173Y-58173D01*
X80154Y-58183D01*
X80145Y-58192D01*
X80135Y-58211D01*
X80126Y-58250D01*
X80116Y-58269D01*
X80107Y-58278D01*
X80088Y-58288D01*
X80069Y-58288D01*
X80050Y-58278D01*
X80040Y-58269D01*
X80030Y-58250D01*
X80030Y-58202D01*
X80040Y-58173D01*
X80211Y-57973D02*
X80221Y-57983D01*
X80230Y-58011D01*
X80230Y-58030D01*
X80221Y-58059D01*
X80202Y-58078D01*
X80183Y-58088D01*
X80145Y-58097D01*
X80116Y-58097D01*
X80078Y-58088D01*
X80059Y-58078D01*
X80040Y-58059D01*
X80030Y-58030D01*
X80030Y-58011D01*
X80040Y-57983D01*
X80050Y-57973D01*
X80230Y-57792D02*
X80230Y-57888D01*
X80030Y-57888D01*
X80221Y-56692D02*
X80230Y-56664D01*
X80230Y-56616D01*
X80221Y-56597D01*
X80211Y-56588D01*
X80192Y-56578D01*
X80173Y-56578D01*
X80154Y-56588D01*
X80145Y-56597D01*
X80135Y-56616D01*
X80126Y-56654D01*
X80116Y-56673D01*
X80107Y-56683D01*
X80088Y-56692D01*
X80069Y-56692D01*
X80050Y-56683D01*
X80040Y-56673D01*
X80030Y-56654D01*
X80030Y-56607D01*
X80040Y-56578D01*
X80230Y-56492D02*
X80030Y-56492D01*
X80030Y-56445D01*
X80040Y-56416D01*
X80059Y-56397D01*
X80078Y-56388D01*
X80116Y-56378D01*
X80145Y-56378D01*
X80183Y-56388D01*
X80202Y-56397D01*
X80221Y-56416D01*
X80230Y-56445D01*
X80230Y-56492D01*
X80173Y-56302D02*
X80173Y-56207D01*
X80230Y-56321D02*
X80030Y-56254D01*
X80230Y-56188D01*
X77076Y-56852D02*
X77076Y-56947D01*
X77019Y-56833D02*
X77219Y-56900D01*
X77019Y-56966D01*
X77019Y-57033D02*
X77219Y-57033D01*
X77219Y-57080D01*
X77209Y-57109D01*
X77190Y-57128D01*
X77171Y-57138D01*
X77133Y-57147D01*
X77104Y-57147D01*
X77066Y-57138D01*
X77047Y-57128D01*
X77028Y-57109D01*
X77019Y-57080D01*
X77019Y-57033D01*
X77019Y-57233D02*
X77219Y-57233D01*
X77219Y-57280D01*
X77209Y-57309D01*
X77190Y-57328D01*
X77171Y-57338D01*
X77133Y-57347D01*
X77104Y-57347D01*
X77066Y-57338D01*
X77047Y-57328D01*
X77028Y-57309D01*
X77019Y-57280D01*
X77019Y-57233D01*
X77019Y-57547D02*
X77114Y-57480D01*
X77019Y-57433D02*
X77219Y-57433D01*
X77219Y-57509D01*
X77209Y-57528D01*
X77200Y-57538D01*
X77180Y-57547D01*
X77152Y-57547D01*
X77133Y-57538D01*
X77123Y-57528D01*
X77114Y-57509D01*
X77114Y-57433D01*
X76569Y-58092D02*
X76569Y-58054D01*
X76559Y-58035D01*
X76550Y-58026D01*
X76521Y-58007D01*
X76483Y-57997D01*
X76407Y-57997D01*
X76388Y-58007D01*
X76378Y-58016D01*
X76369Y-58035D01*
X76369Y-58073D01*
X76378Y-58092D01*
X76388Y-58102D01*
X76407Y-58111D01*
X76454Y-58111D01*
X76473Y-58102D01*
X76483Y-58092D01*
X76492Y-58073D01*
X76492Y-58035D01*
X76483Y-58016D01*
X76473Y-58007D01*
X76454Y-57997D01*
X76483Y-58226D02*
X76492Y-58207D01*
X76502Y-58197D01*
X76521Y-58188D01*
X76530Y-58188D01*
X76550Y-58197D01*
X76559Y-58207D01*
X76569Y-58226D01*
X76569Y-58264D01*
X76559Y-58283D01*
X76550Y-58292D01*
X76530Y-58302D01*
X76521Y-58302D01*
X76502Y-58292D01*
X76492Y-58283D01*
X76483Y-58264D01*
X76483Y-58226D01*
X76473Y-58207D01*
X76464Y-58197D01*
X76445Y-58188D01*
X76407Y-58188D01*
X76388Y-58197D01*
X76378Y-58207D01*
X76369Y-58226D01*
X76369Y-58264D01*
X76378Y-58283D01*
X76388Y-58292D01*
X76407Y-58302D01*
X76445Y-58302D01*
X76464Y-58292D01*
X76473Y-58283D01*
X76483Y-58264D01*
X77092Y-56530D02*
X77054Y-56530D01*
X77035Y-56540D01*
X77026Y-56550D01*
X77007Y-56578D01*
X76997Y-56616D01*
X76997Y-56692D01*
X77007Y-56711D01*
X77016Y-56721D01*
X77035Y-56730D01*
X77073Y-56730D01*
X77092Y-56721D01*
X77102Y-56711D01*
X77111Y-56692D01*
X77111Y-56645D01*
X77102Y-56626D01*
X77092Y-56616D01*
X77073Y-56607D01*
X77035Y-56607D01*
X77016Y-56616D01*
X77007Y-56626D01*
X76997Y-56645D01*
X77207Y-56730D02*
X77245Y-56730D01*
X77264Y-56721D01*
X77273Y-56711D01*
X77292Y-56683D01*
X77302Y-56645D01*
X77302Y-56569D01*
X77292Y-56550D01*
X77283Y-56540D01*
X77264Y-56530D01*
X77226Y-56530D01*
X77207Y-56540D01*
X77197Y-56550D01*
X77188Y-56569D01*
X77188Y-56616D01*
X77197Y-56635D01*
X77207Y-56645D01*
X77226Y-56654D01*
X77264Y-56654D01*
X77283Y-56645D01*
X77292Y-56635D01*
X77302Y-56616D01*
X80300Y-55700D02*
X80300Y-57200D01*
X80300Y-57200D02*
X81000Y-57200D01*
X81000Y-57200D02*
X81000Y-55700D01*
X80300Y-55700D02*
X81000Y-55700D01*
X80300Y-57300D02*
X80300Y-58800D01*
X80300Y-58800D02*
X81000Y-58800D01*
X81000Y-58800D02*
X81000Y-57300D01*
X80300Y-57300D02*
X81000Y-57300D01*
G54D13*
X77300Y-57850D02*
X77300Y-57650D01*
X77300Y-57650D02*
X77000Y-57650D01*
X77000Y-57650D02*
X77000Y-57850D01*
X77300Y-58050D02*
X77300Y-58250D01*
X77300Y-58250D02*
X77000Y-58250D01*
X77000Y-58250D02*
X77000Y-58050D01*
X79700Y-58150D02*
X79700Y-58350D01*
X79700Y-58350D02*
X80000Y-58350D01*
X80000Y-58350D02*
X80000Y-58150D01*
X79700Y-57950D02*
X79700Y-57750D01*
X79700Y-57750D02*
X80000Y-57750D01*
X80000Y-57750D02*
X80000Y-57950D01*
X76400Y-56100D02*
X76400Y-56300D01*
X76400Y-56300D02*
X76700Y-56300D01*
X76700Y-56300D02*
X76700Y-56100D01*
X76400Y-55900D02*
X76400Y-55700D01*
X76400Y-55700D02*
X76700Y-55700D01*
X76700Y-55700D02*
X76700Y-55900D01*
X76950Y-56100D02*
X76950Y-56300D01*
X76950Y-56300D02*
X77250Y-56300D01*
X77250Y-56300D02*
X77250Y-56100D01*
X76950Y-55900D02*
X76950Y-55700D01*
X76950Y-55700D02*
X77250Y-55700D01*
X77250Y-55700D02*
X77250Y-55900D01*
X79550Y-56500D02*
X79550Y-56300D01*
X79550Y-56300D02*
X79250Y-56300D01*
X79250Y-56300D02*
X79250Y-56500D01*
X79550Y-56700D02*
X79550Y-56900D01*
X79550Y-56900D02*
X79250Y-56900D01*
X79250Y-56900D02*
X79250Y-56700D01*
X80000Y-57200D02*
X80000Y-57000D01*
X80000Y-57000D02*
X79700Y-57000D01*
X79700Y-57000D02*
X79700Y-57200D01*
X80000Y-57400D02*
X80000Y-57600D01*
X80000Y-57600D02*
X79700Y-57600D01*
X79700Y-57600D02*
X79700Y-57400D01*
X77800Y-56100D02*
X77800Y-55900D01*
X77800Y-55900D02*
X77500Y-55900D01*
X77500Y-55900D02*
X77500Y-56100D01*
X77800Y-56300D02*
X77800Y-56500D01*
X77800Y-56500D02*
X77500Y-56500D01*
X77500Y-56500D02*
X77500Y-56300D01*
G54D14*
X81750Y-55700D02*
X81150Y-55700D01*
X81150Y-55700D02*
X81150Y-58800D01*
X81150Y-58800D02*
X81750Y-58800D01*
X81750Y-58800D02*
X81750Y-55700D01*
X76250Y-55700D02*
X75650Y-55700D01*
X75650Y-55700D02*
X75650Y-58800D01*
X75650Y-58800D02*
X76250Y-58800D01*
X76250Y-58800D02*
X76250Y-55700D01*
G54D12*
X77562Y-56912D02*
X77562Y-57070D01*
X77562Y-58487D02*
X77562Y-58329D01*
X77562Y-58487D02*
X77720Y-58487D01*
X77562Y-56912D02*
X77720Y-56912D01*
X79137Y-56912D02*
X78979Y-56912D01*
X79137Y-58487D02*
X78979Y-58487D01*
X79137Y-58487D02*
X79137Y-58329D01*
X79137Y-56912D02*
X79137Y-57070D01*
G54D11*
X78822Y-57306D02*
G75*
G03X78822Y-57306I-78J0D01*
G74*
G01*
G54D12*
X76250Y-56400D02*
X76250Y-57900D01*
X76250Y-57900D02*
X76950Y-57900D01*
X76950Y-57900D02*
X76950Y-56400D01*
X76250Y-56400D02*
X76950Y-56400D01*
G54D15*
X79265Y-56001D02*
X79265Y-56001D01*
G54D12*
X79009Y-56198D02*
X79167Y-56198D01*
X79167Y-56198D02*
X79167Y-55805D01*
X79167Y-55805D02*
X79009Y-55805D01*
X78183Y-56198D02*
X78183Y-55805D01*
X78320Y-56198D02*
X78183Y-56198D01*
X78183Y-55805D02*
X78320Y-55805D01*
G54D13*
X77192Y-57970D02*
X77199Y-57975D01*
X77205Y-57992D01*
X77205Y-58004D01*
X77199Y-58021D01*
X77186Y-58032D01*
X77173Y-58038D01*
X77146Y-58044D01*
X77127Y-58044D01*
X77100Y-58038D01*
X77087Y-58032D01*
X77074Y-58021D01*
X77067Y-58004D01*
X77067Y-57992D01*
X77074Y-57975D01*
X77081Y-57970D01*
X77205Y-57855D02*
X77205Y-57924D01*
X77205Y-57890D02*
X77067Y-57890D01*
X77087Y-57901D01*
X77100Y-57912D01*
X77107Y-57924D01*
X79892Y-58070D02*
X79899Y-58075D01*
X79905Y-58092D01*
X79905Y-58104D01*
X79899Y-58121D01*
X79886Y-58132D01*
X79873Y-58138D01*
X79846Y-58144D01*
X79827Y-58144D01*
X79800Y-58138D01*
X79787Y-58132D01*
X79774Y-58121D01*
X79767Y-58104D01*
X79767Y-58092D01*
X79774Y-58075D01*
X79781Y-58070D01*
X79767Y-58030D02*
X79767Y-57955D01*
X79820Y-57995D01*
X79820Y-57978D01*
X79827Y-57967D01*
X79833Y-57961D01*
X79846Y-57955D01*
X79879Y-57955D01*
X79892Y-57961D01*
X79899Y-57967D01*
X79905Y-57978D01*
X79905Y-58012D01*
X79899Y-58024D01*
X79892Y-58030D01*
X76592Y-56020D02*
X76599Y-56025D01*
X76605Y-56042D01*
X76605Y-56054D01*
X76599Y-56071D01*
X76586Y-56082D01*
X76573Y-56088D01*
X76546Y-56094D01*
X76527Y-56094D01*
X76500Y-56088D01*
X76487Y-56082D01*
X76474Y-56071D01*
X76467Y-56054D01*
X76467Y-56042D01*
X76474Y-56025D01*
X76481Y-56020D01*
X76481Y-55974D02*
X76474Y-55968D01*
X76467Y-55957D01*
X76467Y-55928D01*
X76474Y-55917D01*
X76481Y-55911D01*
X76494Y-55905D01*
X76507Y-55905D01*
X76527Y-55911D01*
X76605Y-55980D01*
X76605Y-55905D01*
X77142Y-56020D02*
X77149Y-56025D01*
X77155Y-56042D01*
X77155Y-56054D01*
X77149Y-56071D01*
X77136Y-56082D01*
X77123Y-56088D01*
X77096Y-56094D01*
X77077Y-56094D01*
X77050Y-56088D01*
X77037Y-56082D01*
X77024Y-56071D01*
X77017Y-56054D01*
X77017Y-56042D01*
X77024Y-56025D01*
X77031Y-56020D01*
X77063Y-55917D02*
X77155Y-55917D01*
X77011Y-55945D02*
X77109Y-55974D01*
X77109Y-55900D01*
X79455Y-56620D02*
X79390Y-56660D01*
X79455Y-56688D02*
X79317Y-56688D01*
X79317Y-56642D01*
X79324Y-56631D01*
X79331Y-56625D01*
X79344Y-56620D01*
X79363Y-56620D01*
X79377Y-56625D01*
X79383Y-56631D01*
X79390Y-56642D01*
X79390Y-56688D01*
X79455Y-56505D02*
X79455Y-56574D01*
X79455Y-56540D02*
X79317Y-56540D01*
X79337Y-56551D01*
X79350Y-56562D01*
X79357Y-56574D01*
X79905Y-57320D02*
X79840Y-57360D01*
X79905Y-57388D02*
X79767Y-57388D01*
X79767Y-57342D01*
X79774Y-57331D01*
X79781Y-57325D01*
X79794Y-57320D01*
X79813Y-57320D01*
X79827Y-57325D01*
X79833Y-57331D01*
X79840Y-57342D01*
X79840Y-57388D01*
X79781Y-57274D02*
X79774Y-57268D01*
X79767Y-57257D01*
X79767Y-57228D01*
X79774Y-57217D01*
X79781Y-57211D01*
X79794Y-57205D01*
X79807Y-57205D01*
X79827Y-57211D01*
X79905Y-57280D01*
X79905Y-57205D01*
X77705Y-56220D02*
X77640Y-56260D01*
X77705Y-56288D02*
X77567Y-56288D01*
X77567Y-56242D01*
X77574Y-56231D01*
X77581Y-56225D01*
X77594Y-56220D01*
X77613Y-56220D01*
X77627Y-56225D01*
X77633Y-56231D01*
X77640Y-56242D01*
X77640Y-56288D01*
X77567Y-56180D02*
X77567Y-56105D01*
X77620Y-56145D01*
X77620Y-56128D01*
X77627Y-56117D01*
X77633Y-56111D01*
X77646Y-56105D01*
X77679Y-56105D01*
X77692Y-56111D01*
X77699Y-56117D01*
X77705Y-56128D01*
X77705Y-56162D01*
X77699Y-56174D01*
X77692Y-56180D01*
G54D12*
X78502Y-55730D02*
X78502Y-55530D01*
X78550Y-55530D01*
X78578Y-55540D01*
X78597Y-55559D01*
X78607Y-55578D01*
X78616Y-55616D01*
X78616Y-55645D01*
X78607Y-55683D01*
X78597Y-55702D01*
X78578Y-55721D01*
X78550Y-55730D01*
X78502Y-55730D01*
X78807Y-55730D02*
X78692Y-55730D01*
X78750Y-55730D02*
X78750Y-55530D01*
X78730Y-55559D01*
X78711Y-55578D01*
X78692Y-55588D01*
M02*
