G04 (created by PCBNEW (2013-07-07 BZR 4022)-stable) date 4/24/2014 11:59:52 PM*
%MOIN*%
G04 Gerber Fmt 3.4, Leading zero omitted, Abs format*
%FSLAX34Y34*%
G01*
G70*
G90*
G04 APERTURE LIST*
%ADD10C,0.000787402*%
%ADD11C,0.028*%
%ADD12C,0.027*%
%ADD13C,0.006*%
%ADD14C,0.01*%
G04 APERTURE END LIST*
G54D10*
G54D11*
X81450Y-56000D03*
X81450Y-56500D03*
X81450Y-57000D03*
X81450Y-57500D03*
X81450Y-58000D03*
X81450Y-58500D03*
X75950Y-56000D03*
X75950Y-56500D03*
X75950Y-57000D03*
X75950Y-57500D03*
X75950Y-58000D03*
X75950Y-58500D03*
G54D12*
X80050Y-56800D03*
X79400Y-56000D03*
X78650Y-57800D03*
X76700Y-58100D03*
G54D13*
X75950Y-58000D02*
X76200Y-58250D01*
X80850Y-58600D02*
X81450Y-58000D01*
X76320Y-58600D02*
X80850Y-58600D01*
X76200Y-58479D02*
X76320Y-58600D01*
X76200Y-58250D02*
X76200Y-58479D01*
X75950Y-58500D02*
X76200Y-58750D01*
X81200Y-58750D02*
X81450Y-58500D01*
X76200Y-58750D02*
X81200Y-58750D01*
X75950Y-57000D02*
X75950Y-57050D01*
X80090Y-58359D02*
X81450Y-57000D01*
X76550Y-58359D02*
X80090Y-58359D01*
X76470Y-58279D02*
X76550Y-58359D01*
X76470Y-57570D02*
X76470Y-58279D01*
X75950Y-57050D02*
X76470Y-57570D01*
X81450Y-57500D02*
X81429Y-57500D01*
X76350Y-57900D02*
X75950Y-57500D01*
X76350Y-58400D02*
X76350Y-57900D01*
X76429Y-58479D02*
X76350Y-58400D01*
X80450Y-58479D02*
X76429Y-58479D01*
X81429Y-57500D02*
X80450Y-58479D01*
G54D14*
X79400Y-56000D02*
X75950Y-56000D01*
X80050Y-56800D02*
X80050Y-56000D01*
X81450Y-56000D02*
X80050Y-56000D01*
X80050Y-56000D02*
X79400Y-56000D01*
G54D10*
G36*
X81469Y-56505D02*
X81455Y-56519D01*
X81450Y-56514D01*
X81435Y-56528D01*
X81435Y-56500D01*
X81271Y-56335D01*
X81221Y-56346D01*
X81180Y-56445D01*
X81179Y-56552D01*
X81220Y-56652D01*
X81221Y-56653D01*
X81271Y-56664D01*
X81435Y-56500D01*
X81435Y-56528D01*
X81285Y-56678D01*
X81296Y-56728D01*
X81321Y-56739D01*
X81285Y-56754D01*
X81204Y-56835D01*
X81160Y-56942D01*
X81159Y-57035D01*
X80015Y-58179D01*
X76650Y-58179D01*
X76650Y-57570D01*
X76636Y-57501D01*
X76597Y-57442D01*
X76231Y-57077D01*
X76239Y-57057D01*
X76240Y-56942D01*
X76220Y-56894D01*
X76220Y-56447D01*
X76179Y-56347D01*
X76178Y-56346D01*
X76128Y-56335D01*
X75964Y-56500D01*
X76128Y-56664D01*
X76178Y-56653D01*
X76219Y-56554D01*
X76220Y-56447D01*
X76220Y-56894D01*
X76195Y-56835D01*
X76114Y-56754D01*
X76078Y-56739D01*
X76102Y-56729D01*
X76103Y-56728D01*
X76114Y-56678D01*
X75950Y-56514D01*
X75944Y-56519D01*
X75930Y-56505D01*
X75935Y-56500D01*
X75930Y-56494D01*
X75944Y-56480D01*
X75950Y-56485D01*
X76114Y-56321D01*
X76103Y-56271D01*
X76078Y-56260D01*
X76114Y-56245D01*
X76160Y-56200D01*
X79196Y-56200D01*
X79238Y-56241D01*
X79343Y-56284D01*
X79456Y-56285D01*
X79561Y-56241D01*
X79603Y-56200D01*
X79850Y-56200D01*
X79850Y-56596D01*
X79808Y-56638D01*
X79765Y-56743D01*
X79764Y-56856D01*
X79808Y-56961D01*
X79888Y-57041D01*
X79993Y-57084D01*
X80106Y-57085D01*
X80211Y-57041D01*
X80291Y-56961D01*
X80334Y-56856D01*
X80335Y-56743D01*
X80291Y-56638D01*
X80250Y-56596D01*
X80250Y-56200D01*
X81239Y-56200D01*
X81285Y-56245D01*
X81321Y-56260D01*
X81297Y-56270D01*
X81296Y-56271D01*
X81285Y-56321D01*
X81450Y-56485D01*
X81455Y-56480D01*
X81469Y-56494D01*
X81464Y-56500D01*
X81469Y-56505D01*
X81469Y-56505D01*
G37*
G54D13*
X81469Y-56505D02*
X81455Y-56519D01*
X81450Y-56514D01*
X81435Y-56528D01*
X81435Y-56500D01*
X81271Y-56335D01*
X81221Y-56346D01*
X81180Y-56445D01*
X81179Y-56552D01*
X81220Y-56652D01*
X81221Y-56653D01*
X81271Y-56664D01*
X81435Y-56500D01*
X81435Y-56528D01*
X81285Y-56678D01*
X81296Y-56728D01*
X81321Y-56739D01*
X81285Y-56754D01*
X81204Y-56835D01*
X81160Y-56942D01*
X81159Y-57035D01*
X80015Y-58179D01*
X76650Y-58179D01*
X76650Y-57570D01*
X76636Y-57501D01*
X76597Y-57442D01*
X76231Y-57077D01*
X76239Y-57057D01*
X76240Y-56942D01*
X76220Y-56894D01*
X76220Y-56447D01*
X76179Y-56347D01*
X76178Y-56346D01*
X76128Y-56335D01*
X75964Y-56500D01*
X76128Y-56664D01*
X76178Y-56653D01*
X76219Y-56554D01*
X76220Y-56447D01*
X76220Y-56894D01*
X76195Y-56835D01*
X76114Y-56754D01*
X76078Y-56739D01*
X76102Y-56729D01*
X76103Y-56728D01*
X76114Y-56678D01*
X75950Y-56514D01*
X75944Y-56519D01*
X75930Y-56505D01*
X75935Y-56500D01*
X75930Y-56494D01*
X75944Y-56480D01*
X75950Y-56485D01*
X76114Y-56321D01*
X76103Y-56271D01*
X76078Y-56260D01*
X76114Y-56245D01*
X76160Y-56200D01*
X79196Y-56200D01*
X79238Y-56241D01*
X79343Y-56284D01*
X79456Y-56285D01*
X79561Y-56241D01*
X79603Y-56200D01*
X79850Y-56200D01*
X79850Y-56596D01*
X79808Y-56638D01*
X79765Y-56743D01*
X79764Y-56856D01*
X79808Y-56961D01*
X79888Y-57041D01*
X79993Y-57084D01*
X80106Y-57085D01*
X80211Y-57041D01*
X80291Y-56961D01*
X80334Y-56856D01*
X80335Y-56743D01*
X80291Y-56638D01*
X80250Y-56596D01*
X80250Y-56200D01*
X81239Y-56200D01*
X81285Y-56245D01*
X81321Y-56260D01*
X81297Y-56270D01*
X81296Y-56271D01*
X81285Y-56321D01*
X81450Y-56485D01*
X81455Y-56480D01*
X81469Y-56494D01*
X81464Y-56500D01*
X81469Y-56505D01*
M02*
