<?xml version="1.0" encoding="UTF-8"?>
<svg xmlns="http://www.w3.org/2000/svg" xmlns:xlink="http://www.w3.org/1999/xlink" width="36pt" height="23pt" viewBox="0 0 36 23" version="1.1">
<g id="surface7258">
<path style=" stroke:none;fill-rule:evenodd;fill:rgb(45.098039%,45.098039%,87.058824%);fill-opacity:1;" d="M 30.796875 3.203125 L 34.398438 3.203125 L 34.398438 0.46875 L 30.796875 0.46875 Z M 30.796875 3.203125 "/>
<path style=" stroke:none;fill-rule:evenodd;fill:rgb(45.098039%,45.098039%,87.058824%);fill-opacity:1;" d="M 30.796875 6.800781 L 34.398438 6.800781 L 34.398438 4.066406 L 30.796875 4.066406 Z M 30.796875 6.800781 "/>
<path style=" stroke:none;fill-rule:evenodd;fill:rgb(45.098039%,45.098039%,87.058824%);fill-opacity:1;" d="M 30.796875 10.402344 L 34.398438 10.402344 L 34.398438 7.667969 L 30.796875 7.667969 Z M 30.796875 10.402344 "/>
<path style=" stroke:none;fill-rule:evenodd;fill:rgb(45.098039%,45.098039%,87.058824%);fill-opacity:1;" d="M 30.796875 14.722656 L 34.398438 14.722656 L 34.398438 11.988281 L 30.796875 11.988281 Z M 30.796875 14.722656 "/>
<path style=" stroke:none;fill-rule:evenodd;fill:rgb(45.098039%,45.098039%,87.058824%);fill-opacity:1;" d="M 30.796875 18.320313 L 34.398438 18.320313 L 34.398438 15.585938 L 30.796875 15.585938 Z M 30.796875 18.320313 "/>
<path style=" stroke:none;fill-rule:evenodd;fill:rgb(45.098039%,45.098039%,87.058824%);fill-opacity:1;" d="M 30.796875 21.921875 L 34.398438 21.921875 L 34.398438 19.1875 L 30.796875 19.1875 Z M 30.796875 21.921875 "/>
<path style=" stroke:none;fill-rule:evenodd;fill:rgb(45.098039%,45.098039%,87.058824%);fill-opacity:1;" d="M 6.546875 15.523438 L 8.246094 15.523438 L 8.246094 14.394531 L 6.546875 14.394531 Z M 6.546875 15.523438 "/>
<path style=" stroke:none;fill-rule:evenodd;fill:rgb(45.098039%,45.098039%,87.058824%);fill-opacity:1;" d="M 6.546875 18.074219 L 8.246094 18.074219 L 8.246094 16.945313 L 6.546875 16.945313 Z M 6.546875 18.074219 "/>
<path style=" stroke:none;fill-rule:evenodd;fill:rgb(45.098039%,45.098039%,87.058824%);fill-opacity:1;" d="M 25.988281 18.792969 L 27.6875 18.792969 L 27.6875 17.664063 L 25.988281 17.664063 Z M 25.988281 18.792969 "/>
<path style=" stroke:none;fill-rule:evenodd;fill:rgb(45.098039%,45.098039%,87.058824%);fill-opacity:1;" d="M 25.988281 16.246094 L 27.6875 16.246094 L 27.6875 15.117188 L 25.988281 15.117188 Z M 25.988281 16.246094 "/>
<path style=" stroke:none;fill-rule:evenodd;fill:rgb(45.098039%,45.098039%,87.058824%);fill-opacity:1;" d="M 2.226563 4.035156 L 3.925781 4.035156 L 3.925781 2.90625 L 2.226563 2.90625 Z M 2.226563 4.035156 "/>
<path style=" stroke:none;fill-rule:evenodd;fill:rgb(45.098039%,45.098039%,87.058824%);fill-opacity:1;" d="M 2.226563 1.484375 L 3.925781 1.484375 L 3.925781 0.355469 L 2.226563 0.355469 Z M 2.226563 1.484375 "/>
<path style=" stroke:none;fill-rule:evenodd;fill:rgb(45.098039%,45.098039%,87.058824%);fill-opacity:1;" d="M 6.1875 4.035156 L 7.886719 4.035156 L 7.886719 2.90625 L 6.1875 2.90625 Z M 6.1875 4.035156 "/>
<path style=" stroke:none;fill-rule:evenodd;fill:rgb(45.098039%,45.098039%,87.058824%);fill-opacity:1;" d="M 6.1875 1.484375 L 7.886719 1.484375 L 7.886719 0.355469 L 6.1875 0.355469 Z M 6.1875 1.484375 "/>
<path style=" stroke:none;fill-rule:evenodd;fill:rgb(45.098039%,45.098039%,87.058824%);fill-opacity:1;" d="M 22.75 5.804688 L 24.449219 5.804688 L 24.449219 4.675781 L 22.75 4.675781 Z M 22.75 5.804688 "/>
<path style=" stroke:none;fill-rule:evenodd;fill:rgb(45.098039%,45.098039%,87.058824%);fill-opacity:1;" d="M 22.75 8.351563 L 24.449219 8.351563 L 24.449219 7.222656 L 22.75 7.222656 Z M 22.75 8.351563 "/>
<path style=" stroke:none;fill-rule:evenodd;fill:rgb(45.098039%,45.098039%,87.058824%);fill-opacity:1;" d="M 25.988281 10.84375 L 27.6875 10.84375 L 27.6875 9.714844 L 25.988281 9.714844 Z M 25.988281 10.84375 "/>
<path style=" stroke:none;fill-rule:evenodd;fill:rgb(45.098039%,45.098039%,87.058824%);fill-opacity:1;" d="M 25.988281 13.394531 L 27.6875 13.394531 L 27.6875 12.265625 L 25.988281 12.265625 Z M 25.988281 13.394531 "/>
<path style=" stroke:none;fill-rule:evenodd;fill:rgb(45.098039%,45.098039%,87.058824%);fill-opacity:1;" d="M 10.148438 2.925781 L 11.847656 2.925781 L 11.847656 1.796875 L 10.148438 1.796875 Z M 10.148438 2.925781 "/>
<path style=" stroke:none;fill-rule:evenodd;fill:rgb(45.098039%,45.098039%,87.058824%);fill-opacity:1;" d="M 10.148438 5.472656 L 11.847656 5.472656 L 11.847656 4.34375 L 10.148438 4.34375 Z M 10.148438 5.472656 "/>
<path style=" stroke:none;fill-rule:evenodd;fill:rgb(45.098039%,45.098039%,87.058824%);fill-opacity:1;" d="M 19.085938 10.035156 L 20.078125 10.035156 L 20.078125 7.625 L 19.085938 7.625 Z M 19.085938 10.035156 "/>
<path style=" stroke:none;fill-rule:evenodd;fill:rgb(45.098039%,45.098039%,87.058824%);fill-opacity:1;" d="M 17.664063 10.035156 L 18.65625 10.035156 L 18.65625 7.625 L 17.664063 7.625 Z M 17.664063 10.035156 "/>
<path style=" stroke:none;fill-rule:evenodd;fill:rgb(45.098039%,45.098039%,87.058824%);fill-opacity:1;" d="M 16.246094 10.035156 L 17.238281 10.035156 L 17.238281 7.625 L 16.246094 7.625 Z M 16.246094 10.035156 "/>
<path style=" stroke:none;fill-rule:evenodd;fill:rgb(45.098039%,45.098039%,87.058824%);fill-opacity:1;" d="M 14.828125 10.035156 L 15.820313 10.035156 L 15.820313 7.625 L 14.828125 7.625 Z M 14.828125 10.035156 "/>
<path style=" stroke:none;fill-rule:evenodd;fill:rgb(45.098039%,45.098039%,87.058824%);fill-opacity:1;" d="M 13.410156 10.035156 L 14.402344 10.035156 L 14.402344 7.625 L 13.410156 7.625 Z M 13.410156 10.035156 "/>
<path style=" stroke:none;fill-rule:evenodd;fill:rgb(45.098039%,45.098039%,87.058824%);fill-opacity:1;" d="M 11.992188 10.035156 L 12.984375 10.035156 L 12.984375 7.625 L 11.992188 7.625 Z M 11.992188 10.035156 "/>
<path style=" stroke:none;fill-rule:evenodd;fill:rgb(45.098039%,45.098039%,87.058824%);fill-opacity:1;" d="M 11.992188 21.234375 L 12.984375 21.234375 L 12.984375 18.824219 L 11.992188 18.824219 Z M 11.992188 21.234375 "/>
<path style=" stroke:none;fill-rule:evenodd;fill:rgb(45.098039%,45.098039%,87.058824%);fill-opacity:1;" d="M 13.410156 21.234375 L 14.402344 21.234375 L 14.402344 18.824219 L 13.410156 18.824219 Z M 13.410156 21.234375 "/>
<path style=" stroke:none;fill-rule:evenodd;fill:rgb(45.098039%,45.098039%,87.058824%);fill-opacity:1;" d="M 14.828125 21.234375 L 15.820313 21.234375 L 15.820313 18.824219 L 14.828125 18.824219 Z M 14.828125 21.234375 "/>
<path style=" stroke:none;fill-rule:evenodd;fill:rgb(45.098039%,45.098039%,87.058824%);fill-opacity:1;" d="M 16.246094 21.234375 L 17.238281 21.234375 L 17.238281 18.824219 L 16.246094 18.824219 Z M 16.246094 21.234375 "/>
<path style=" stroke:none;fill-rule:evenodd;fill:rgb(45.098039%,45.098039%,87.058824%);fill-opacity:1;" d="M 17.664063 21.234375 L 18.65625 21.234375 L 18.65625 18.824219 L 17.664063 18.824219 Z M 17.664063 21.234375 "/>
<path style=" stroke:none;fill-rule:evenodd;fill:rgb(45.098039%,45.098039%,87.058824%);fill-opacity:1;" d="M 19.085938 21.234375 L 20.078125 21.234375 L 20.078125 18.824219 L 19.085938 18.824219 Z M 19.085938 21.234375 "/>
<path style=" stroke:none;fill-rule:evenodd;fill:rgb(45.098039%,45.098039%,87.058824%);fill-opacity:1;" d="M 9.230469 11.378906 L 11.640625 11.378906 L 11.640625 10.386719 L 9.230469 10.386719 Z M 9.230469 11.378906 "/>
<path style=" stroke:none;fill-rule:evenodd;fill:rgb(45.098039%,45.098039%,87.058824%);fill-opacity:1;" d="M 9.230469 12.796875 L 11.640625 12.796875 L 11.640625 11.804688 L 9.230469 11.804688 Z M 9.230469 12.796875 "/>
<path style=" stroke:none;fill-rule:evenodd;fill:rgb(45.098039%,45.098039%,87.058824%);fill-opacity:1;" d="M 9.230469 14.21875 L 11.640625 14.21875 L 11.640625 13.226563 L 9.230469 13.226563 Z M 9.230469 14.21875 "/>
<path style=" stroke:none;fill-rule:evenodd;fill:rgb(45.098039%,45.098039%,87.058824%);fill-opacity:1;" d="M 9.230469 15.636719 L 11.640625 15.636719 L 11.640625 14.644531 L 9.230469 14.644531 Z M 9.230469 15.636719 "/>
<path style=" stroke:none;fill-rule:evenodd;fill:rgb(45.098039%,45.098039%,87.058824%);fill-opacity:1;" d="M 9.230469 17.054688 L 11.640625 17.054688 L 11.640625 16.0625 L 9.230469 16.0625 Z M 9.230469 17.054688 "/>
<path style=" stroke:none;fill-rule:evenodd;fill:rgb(45.098039%,45.098039%,87.058824%);fill-opacity:1;" d="M 9.230469 18.472656 L 11.640625 18.472656 L 11.640625 17.480469 L 9.230469 17.480469 Z M 9.230469 18.472656 "/>
<path style=" stroke:none;fill-rule:evenodd;fill:rgb(45.098039%,45.098039%,87.058824%);fill-opacity:1;" d="M 20.425781 18.472656 L 22.835938 18.472656 L 22.835938 17.480469 L 20.425781 17.480469 Z M 20.425781 18.472656 "/>
<path style=" stroke:none;fill-rule:evenodd;fill:rgb(45.098039%,45.098039%,87.058824%);fill-opacity:1;" d="M 20.425781 17.054688 L 22.835938 17.054688 L 22.835938 16.0625 L 20.425781 16.0625 Z M 20.425781 17.054688 "/>
<path style=" stroke:none;fill-rule:evenodd;fill:rgb(45.098039%,45.098039%,87.058824%);fill-opacity:1;" d="M 20.425781 15.636719 L 22.835938 15.636719 L 22.835938 14.644531 L 20.425781 14.644531 Z M 20.425781 15.636719 "/>
<path style=" stroke:none;fill-rule:evenodd;fill:rgb(45.098039%,45.098039%,87.058824%);fill-opacity:1;" d="M 20.425781 14.21875 L 22.835938 14.21875 L 22.835938 13.226563 L 20.425781 13.226563 Z M 20.425781 14.21875 "/>
<path style=" stroke:none;fill-rule:evenodd;fill:rgb(45.098039%,45.098039%,87.058824%);fill-opacity:1;" d="M 20.425781 12.796875 L 22.835938 12.796875 L 22.835938 11.804688 L 20.425781 11.804688 Z M 20.425781 12.796875 "/>
<path style=" stroke:none;fill-rule:evenodd;fill:rgb(45.098039%,45.098039%,87.058824%);fill-opacity:1;" d="M 20.425781 11.378906 L 22.835938 11.378906 L 22.835938 10.386719 L 20.425781 10.386719 Z M 20.425781 11.378906 "/>
<path style=" stroke:none;fill-rule:evenodd;fill:rgb(45.098039%,45.098039%,87.058824%);fill-opacity:1;" d="M 1.636719 8.242188 L 5.238281 8.242188 L 5.238281 5.507813 L 1.636719 5.507813 Z M 1.636719 8.242188 "/>
<path style=" stroke:none;fill-rule:evenodd;fill:rgb(45.098039%,45.098039%,87.058824%);fill-opacity:1;" d="M 1.636719 11.839844 L 5.238281 11.839844 L 5.238281 9.105469 L 1.636719 9.105469 Z M 1.636719 11.839844 "/>
<path style=" stroke:none;fill-rule:evenodd;fill:rgb(45.098039%,45.098039%,87.058824%);fill-opacity:1;" d="M 1.636719 15.441406 L 5.238281 15.441406 L 5.238281 12.707031 L 1.636719 12.707031 Z M 1.636719 15.441406 "/>
<path style=" stroke:none;fill-rule:evenodd;fill:rgb(45.098039%,45.098039%,87.058824%);fill-opacity:1;" d="M 19.371094 3.332031 L 21.632813 3.332031 L 21.632813 1.070313 L 19.371094 1.070313 Z M 19.371094 3.332031 "/>
<path style=" stroke:none;fill-rule:evenodd;fill:rgb(45.098039%,45.098039%,87.058824%);fill-opacity:1;" d="M 15.125 3.332031 L 17.386719 3.332031 L 17.386719 1.070313 L 15.125 1.070313 Z M 15.125 3.332031 "/>
</g>
</svg>
