  0
SECTION
  2
HEADER
  9
$ACADVER
  1
AC1014
  9
$HANDSEED
  5
FFFF
  9
$MEASUREMENT
 70
     1
  0
ENDSEC
  0
SECTION
  2
TABLES
  0
TABLE
  2
VPORT
  5
8
330
0
100
AcDbSymbolTable
 70
     4
  0
VPORT
  5
2E
330
8
100
AcDbSymbolTableRecord
100
AcDbViewportTableRecord
  2
*ACTIVE
 70
     0
 10
0.0
 20
0.0
 11
1.0
 21
1.0
 12
210.0
 22
148.5
 13
0.0
 23
0.0
 14
10.0
 24
10.0
 15
10.0
 25
10.0
 16
0.0
 26
0.0
 36
1.0
 17
0.0
 27
0.0
 37
0.0
 40
341.0
 41
1.24
 42
50.0
 43
0.0
 44
0.0
 50
0.0
 51
0.0
 71
     0
 72
   100
 73
     1
 74
     3
 75
     0
 76
     0
 77
     0
 78
     0
  0
ENDTAB
  0
TABLE
  2
LTYPE
  5
5
330
0
100
AcDbSymbolTable
 70
     1
  0
LTYPE
  5
14
330
5
100
AcDbSymbolTableRecord
100
AcDbLinetypeTableRecord
  2
BYBLOCK
 70
     0
  3

 72
    65
 73
     0
 40
0.0
  0
LTYPE
  5
15
330
5
100
AcDbSymbolTableRecord
100
AcDbLinetypeTableRecord
  2
BYLAYER
 70
     0
  3

 72
    65
 73
     0
 40
0.0
  0
LTYPE
  5
16
330
5
100
AcDbSymbolTableRecord
100
AcDbLinetypeTableRecord
  2
CONTINUOUS
 70
     0
  3
Solid line
 72
    65
 73
     0
 40
0.0
  0
ENDTAB
  0
TABLE
  2
LAYER
  5
2
100
AcDbSymbolTable
 70
1
  0
LAYER
  5
50
100
AcDbSymbolTableRecord
100
AcDbLayerTableRecord
  2
0
 70
0
  6
CONTINUOUS
  0
ENDTAB
  0
TABLE
  2
STYLE
  5
3
330
0
100
AcDbSymbolTable
 70
     1
  0
STYLE
  5
11
330
3
100
AcDbSymbolTableRecord
100
AcDbTextStyleTableRecord
  2
STANDARD
 70
     0
 40
0.0
 41
1.0
 50
0.0
 71
     0
 42
2.5
  3
txt
  4

  0
ENDTAB
  0
TABLE
  2
VIEW
  5
6
330
0
100
AcDbSymbolTable
 70
     0
  0
ENDTAB
  0
TABLE
  2
UCS
  5
7
330
0
100
AcDbSymbolTable
 70
     0
  0
ENDTAB
  0
TABLE
  2
APPID
  5
9
330
0
100
AcDbSymbolTable
 70
     2
  0
APPID
  5
12
330
9
100
AcDbSymbolTableRecord
100
AcDbRegAppTableRecord
  2
ACAD
 70
     0
  0
ENDTAB
  0
TABLE
  2
DIMSTYLE
  5
A
330
0
100
AcDbSymbolTable
 70
     1
  0
DIMSTYLE
105
27
330
A
100
AcDbSymbolTableRecord
100
AcDbDimStyleTableRecord
  2
ISO-25
 70
     0
  3

  4

  5

  6

  7

 40
1.0
 41
2.5
 42
0.625
 43
3.75
 44
1.25
 45
0.0
 46
0.0
 47
0.0
 48
0.0
140
2.5
141
2.5
142
0.0
143
0.03937007874016
144
1.0
145
0.0
146
1.0
147
0.625
 71
     0
 72
     0
 73
     0
 74
     0
 75
     0
 76
     0
 77
     1
 78
     8
170
     0
171
     3
172
     1
173
     0
174
     0
175
     0
176
     0
177
     0
178
     0
270
     2
271
     2
272
     2
273
     2
274
     3
340
11
275
     0
280
     0
281
     0
282
     0
283
     0
284
     8
285
     0
286
     0
287
     3
288
     0
  0
ENDTAB
  0
TABLE
  2
BLOCK_RECORD
  5
1
330
0
100
AcDbSymbolTable
 70
     1
  0
BLOCK_RECORD
  5
1F
330
1
100
AcDbSymbolTableRecord
100
AcDbBlockTableRecord
  2
*MODEL_SPACE
  0
BLOCK_RECORD
  5
1B
330
1
100
AcDbSymbolTableRecord
100
AcDbBlockTableRecord
  2
*PAPER_SPACE
  0
ENDTAB
  0
ENDSEC
  0
SECTION
  2
BLOCKS
  0
BLOCK
  5
20
330
1F
100
AcDbEntity
  8
0
100
AcDbBlockBegin
  2
*MODEL_SPACE
 70
     0
 10
0.0
 20
0.0
 30
0.0
  3
*MODEL_SPACE
  1

  0
ENDBLK
  5
21
330
1F
100
AcDbEntity
  8
0
100
AcDbBlockEnd
  0
BLOCK
  5
1C
330
1B
100
AcDbEntity
 67
     1
  8
0
100
AcDbBlockBegin
  2
*PAPER_SPACE
  1

  0
ENDBLK
  5
1D
330
1B
100
AcDbEntity
 67
     1
  8
0
100
AcDbBlockEnd
  0
ENDSEC
  0
SECTION
  2
ENTITIES
  0
LWPOLYLINE
  5
100
100
AcDbEntity
  8
0
 62
7
100
AcDbPolyline
 90
5
 70
0
 10
24.637500
 20
20.437500
 30
0.0
 10
27.518750
 20
20.437500
 30
0.0
 10
27.518750
 20
22.625000
 30
0.0
 10
24.637500
 20
22.625000
 30
0.0
 10
24.637500
 20
20.437500
 30
0.0
  0
LWPOLYLINE
  5
101
100
AcDbEntity
  8
0
 62
7
100
AcDbPolyline
 90
5
 70
0
 10
24.637500
 20
17.559375
 30
0.0
 10
27.518750
 20
17.559375
 30
0.0
 10
27.518750
 20
19.746875
 30
0.0
 10
24.637500
 20
19.746875
 30
0.0
 10
24.637500
 20
17.559375
 30
0.0
  0
LWPOLYLINE
  5
102
100
AcDbEntity
  8
0
 62
7
100
AcDbPolyline
 90
5
 70
0
 10
24.637500
 20
14.678125
 30
0.0
 10
27.518750
 20
14.678125
 30
0.0
 10
27.518750
 20
16.865625
 30
0.0
 10
24.637500
 20
16.865625
 30
0.0
 10
24.637500
 20
14.678125
 30
0.0
  0
LWPOLYLINE
  5
103
100
AcDbEntity
  8
0
 62
7
100
AcDbPolyline
 90
5
 70
0
 10
24.637500
 20
11.221875
 30
0.0
 10
27.518750
 20
11.221875
 30
0.0
 10
27.518750
 20
13.409375
 30
0.0
 10
24.637500
 20
13.409375
 30
0.0
 10
24.637500
 20
11.221875
 30
0.0
  0
LWPOLYLINE
  5
104
100
AcDbEntity
  8
0
 62
7
100
AcDbPolyline
 90
5
 70
0
 10
24.637500
 20
8.343750
 30
0.0
 10
27.518750
 20
8.343750
 30
0.0
 10
27.518750
 20
10.531250
 30
0.0
 10
24.637500
 20
10.531250
 30
0.0
 10
24.637500
 20
8.343750
 30
0.0
  0
LWPOLYLINE
  5
105
100
AcDbEntity
  8
0
 62
7
100
AcDbPolyline
 90
5
 70
0
 10
24.637500
 20
5.462500
 30
0.0
 10
27.518750
 20
5.462500
 30
0.0
 10
27.518750
 20
7.650000
 30
0.0
 10
24.637500
 20
7.650000
 30
0.0
 10
24.637500
 20
5.462500
 30
0.0
  0
LWPOLYLINE
  5
106
100
AcDbEntity
  8
0
 62
7
100
AcDbPolyline
 90
5
 70
0
 10
5.237500
 20
10.581250
 30
0.0
 10
6.596875
 20
10.581250
 30
0.0
 10
6.596875
 20
11.484375
 30
0.0
 10
5.237500
 20
11.484375
 30
0.0
 10
5.237500
 20
10.581250
 30
0.0
  0
LWPOLYLINE
  5
107
100
AcDbEntity
  8
0
 62
7
100
AcDbPolyline
 90
5
 70
0
 10
5.237500
 20
8.540625
 30
0.0
 10
6.596875
 20
8.540625
 30
0.0
 10
6.596875
 20
9.443750
 30
0.0
 10
5.237500
 20
9.443750
 30
0.0
 10
5.237500
 20
8.540625
 30
0.0
  0
LWPOLYLINE
  5
108
100
AcDbEntity
  8
0
 62
7
100
AcDbPolyline
 90
5
 70
0
 10
20.790625
 20
7.965625
 30
0.0
 10
22.150000
 20
7.965625
 30
0.0
 10
22.150000
 20
8.868750
 30
0.0
 10
20.790625
 20
8.868750
 30
0.0
 10
20.790625
 20
7.965625
 30
0.0
  0
LWPOLYLINE
  5
109
100
AcDbEntity
  8
0
 62
7
100
AcDbPolyline
 90
5
 70
0
 10
20.790625
 20
10.003125
 30
0.0
 10
22.150000
 20
10.003125
 30
0.0
 10
22.150000
 20
10.906250
 30
0.0
 10
20.790625
 20
10.906250
 30
0.0
 10
20.790625
 20
10.003125
 30
0.0
  0
LWPOLYLINE
  5
10a
100
AcDbEntity
  8
0
 62
7
100
AcDbPolyline
 90
5
 70
0
 10
1.781250
 20
19.771875
 30
0.0
 10
3.140625
 20
19.771875
 30
0.0
 10
3.140625
 20
20.675000
 30
0.0
 10
1.781250
 20
20.675000
 30
0.0
 10
1.781250
 20
19.771875
 30
0.0
  0
LWPOLYLINE
  5
10b
100
AcDbEntity
  8
0
 62
7
100
AcDbPolyline
 90
5
 70
0
 10
1.781250
 20
21.812500
 30
0.0
 10
3.140625
 20
21.812500
 30
0.0
 10
3.140625
 20
22.715625
 30
0.0
 10
1.781250
 20
22.715625
 30
0.0
 10
1.781250
 20
21.812500
 30
0.0
  0
LWPOLYLINE
  5
10c
100
AcDbEntity
  8
0
 62
7
100
AcDbPolyline
 90
5
 70
0
 10
4.950000
 20
19.771875
 30
0.0
 10
6.309375
 20
19.771875
 30
0.0
 10
6.309375
 20
20.675000
 30
0.0
 10
4.950000
 20
20.675000
 30
0.0
 10
4.950000
 20
19.771875
 30
0.0
  0
LWPOLYLINE
  5
10d
100
AcDbEntity
  8
0
 62
7
100
AcDbPolyline
 90
5
 70
0
 10
4.950000
 20
21.812500
 30
0.0
 10
6.309375
 20
21.812500
 30
0.0
 10
6.309375
 20
22.715625
 30
0.0
 10
4.950000
 20
22.715625
 30
0.0
 10
4.950000
 20
21.812500
 30
0.0
  0
LWPOLYLINE
  5
10e
100
AcDbEntity
  8
0
 62
7
100
AcDbPolyline
 90
5
 70
0
 10
18.200000
 20
18.356250
 30
0.0
 10
19.559375
 20
18.356250
 30
0.0
 10
19.559375
 20
19.259375
 30
0.0
 10
18.200000
 20
19.259375
 30
0.0
 10
18.200000
 20
18.356250
 30
0.0
  0
LWPOLYLINE
  5
10f
100
AcDbEntity
  8
0
 62
7
100
AcDbPolyline
 90
5
 70
0
 10
18.200000
 20
16.318750
 30
0.0
 10
19.559375
 20
16.318750
 30
0.0
 10
19.559375
 20
17.221875
 30
0.0
 10
18.200000
 20
17.221875
 30
0.0
 10
18.200000
 20
16.318750
 30
0.0
  0
LWPOLYLINE
  5
110
100
AcDbEntity
  8
0
 62
7
100
AcDbPolyline
 90
5
 70
0
 10
20.790625
 20
14.325000
 30
0.0
 10
22.150000
 20
14.325000
 30
0.0
 10
22.150000
 20
15.228125
 30
0.0
 10
20.790625
 20
15.228125
 30
0.0
 10
20.790625
 20
14.325000
 30
0.0
  0
LWPOLYLINE
  5
111
100
AcDbEntity
  8
0
 62
7
100
AcDbPolyline
 90
5
 70
0
 10
20.790625
 20
12.284375
 30
0.0
 10
22.150000
 20
12.284375
 30
0.0
 10
22.150000
 20
13.187500
 30
0.0
 10
20.790625
 20
13.187500
 30
0.0
 10
20.790625
 20
12.284375
 30
0.0
  0
LWPOLYLINE
  5
112
100
AcDbEntity
  8
0
 62
7
100
AcDbPolyline
 90
5
 70
0
 10
8.118750
 20
20.659375
 30
0.0
 10
9.478125
 20
20.659375
 30
0.0
 10
9.478125
 20
21.562500
 30
0.0
 10
8.118750
 20
21.562500
 30
0.0
 10
8.118750
 20
20.659375
 30
0.0
  0
LWPOLYLINE
  5
113
100
AcDbEntity
  8
0
 62
7
100
AcDbPolyline
 90
5
 70
0
 10
8.118750
 20
18.621875
 30
0.0
 10
9.478125
 20
18.621875
 30
0.0
 10
9.478125
 20
19.525000
 30
0.0
 10
8.118750
 20
19.525000
 30
0.0
 10
8.118750
 20
18.621875
 30
0.0
  0
LWPOLYLINE
  5
114
100
AcDbEntity
  8
0
 62
7
100
AcDbPolyline
 90
5
 70
0
 10
15.268750
 20
14.971875
 30
0.0
 10
16.062500
 20
14.971875
 30
0.0
 10
16.062500
 20
16.900000
 30
0.0
 10
15.268750
 20
16.900000
 30
0.0
 10
15.268750
 20
14.971875
 30
0.0
  0
LWPOLYLINE
  5
115
100
AcDbEntity
  8
0
 62
7
100
AcDbPolyline
 90
5
 70
0
 10
14.131250
 20
14.971875
 30
0.0
 10
14.925000
 20
14.971875
 30
0.0
 10
14.925000
 20
16.900000
 30
0.0
 10
14.131250
 20
16.900000
 30
0.0
 10
14.131250
 20
14.971875
 30
0.0
  0
LWPOLYLINE
  5
116
100
AcDbEntity
  8
0
 62
7
100
AcDbPolyline
 90
5
 70
0
 10
12.996875
 20
14.971875
 30
0.0
 10
13.790625
 20
14.971875
 30
0.0
 10
13.790625
 20
16.900000
 30
0.0
 10
12.996875
 20
16.900000
 30
0.0
 10
12.996875
 20
14.971875
 30
0.0
  0
LWPOLYLINE
  5
117
100
AcDbEntity
  8
0
 62
7
100
AcDbPolyline
 90
5
 70
0
 10
11.862500
 20
14.971875
 30
0.0
 10
12.656250
 20
14.971875
 30
0.0
 10
12.656250
 20
16.900000
 30
0.0
 10
11.862500
 20
16.900000
 30
0.0
 10
11.862500
 20
14.971875
 30
0.0
  0
LWPOLYLINE
  5
118
100
AcDbEntity
  8
0
 62
7
100
AcDbPolyline
 90
5
 70
0
 10
10.728125
 20
14.971875
 30
0.0
 10
11.521875
 20
14.971875
 30
0.0
 10
11.521875
 20
16.900000
 30
0.0
 10
10.728125
 20
16.900000
 30
0.0
 10
10.728125
 20
14.971875
 30
0.0
  0
LWPOLYLINE
  5
119
100
AcDbEntity
  8
0
 62
7
100
AcDbPolyline
 90
5
 70
0
 10
9.593750
 20
14.971875
 30
0.0
 10
10.387500
 20
14.971875
 30
0.0
 10
10.387500
 20
16.900000
 30
0.0
 10
9.593750
 20
16.900000
 30
0.0
 10
9.593750
 20
14.971875
 30
0.0
  0
LWPOLYLINE
  5
11a
100
AcDbEntity
  8
0
 62
7
100
AcDbPolyline
 90
5
 70
0
 10
9.593750
 20
6.012500
 30
0.0
 10
10.387500
 20
6.012500
 30
0.0
 10
10.387500
 20
7.940625
 30
0.0
 10
9.593750
 20
7.940625
 30
0.0
 10
9.593750
 20
6.012500
 30
0.0
  0
LWPOLYLINE
  5
11b
100
AcDbEntity
  8
0
 62
7
100
AcDbPolyline
 90
5
 70
0
 10
10.728125
 20
6.012500
 30
0.0
 10
11.521875
 20
6.012500
 30
0.0
 10
11.521875
 20
7.940625
 30
0.0
 10
10.728125
 20
7.940625
 30
0.0
 10
10.728125
 20
6.012500
 30
0.0
  0
LWPOLYLINE
  5
11c
100
AcDbEntity
  8
0
 62
7
100
AcDbPolyline
 90
5
 70
0
 10
11.862500
 20
6.012500
 30
0.0
 10
12.656250
 20
6.012500
 30
0.0
 10
12.656250
 20
7.940625
 30
0.0
 10
11.862500
 20
7.940625
 30
0.0
 10
11.862500
 20
6.012500
 30
0.0
  0
LWPOLYLINE
  5
11d
100
AcDbEntity
  8
0
 62
7
100
AcDbPolyline
 90
5
 70
0
 10
12.996875
 20
6.012500
 30
0.0
 10
13.790625
 20
6.012500
 30
0.0
 10
13.790625
 20
7.940625
 30
0.0
 10
12.996875
 20
7.940625
 30
0.0
 10
12.996875
 20
6.012500
 30
0.0
  0
LWPOLYLINE
  5
11e
100
AcDbEntity
  8
0
 62
7
100
AcDbPolyline
 90
5
 70
0
 10
14.131250
 20
6.012500
 30
0.0
 10
14.925000
 20
6.012500
 30
0.0
 10
14.925000
 20
7.940625
 30
0.0
 10
14.131250
 20
7.940625
 30
0.0
 10
14.131250
 20
6.012500
 30
0.0
  0
LWPOLYLINE
  5
11f
100
AcDbEntity
  8
0
 62
7
100
AcDbPolyline
 90
5
 70
0
 10
15.268750
 20
6.012500
 30
0.0
 10
16.062500
 20
6.012500
 30
0.0
 10
16.062500
 20
7.940625
 30
0.0
 10
15.268750
 20
7.940625
 30
0.0
 10
15.268750
 20
6.012500
 30
0.0
  0
LWPOLYLINE
  5
120
100
AcDbEntity
  8
0
 62
7
100
AcDbPolyline
 90
5
 70
0
 10
7.384375
 20
13.896875
 30
0.0
 10
9.312500
 20
13.896875
 30
0.0
 10
9.312500
 20
14.690625
 30
0.0
 10
7.384375
 20
14.690625
 30
0.0
 10
7.384375
 20
13.896875
 30
0.0
  0
LWPOLYLINE
  5
121
100
AcDbEntity
  8
0
 62
7
100
AcDbPolyline
 90
5
 70
0
 10
7.384375
 20
12.762500
 30
0.0
 10
9.312500
 20
12.762500
 30
0.0
 10
9.312500
 20
13.556250
 30
0.0
 10
7.384375
 20
13.556250
 30
0.0
 10
7.384375
 20
12.762500
 30
0.0
  0
LWPOLYLINE
  5
122
100
AcDbEntity
  8
0
 62
7
100
AcDbPolyline
 90
5
 70
0
 10
7.384375
 20
11.625000
 30
0.0
 10
9.312500
 20
11.625000
 30
0.0
 10
9.312500
 20
12.418750
 30
0.0
 10
7.384375
 20
12.418750
 30
0.0
 10
7.384375
 20
11.625000
 30
0.0
  0
LWPOLYLINE
  5
123
100
AcDbEntity
  8
0
 62
7
100
AcDbPolyline
 90
5
 70
0
 10
7.384375
 20
10.490625
 30
0.0
 10
9.312500
 20
10.490625
 30
0.0
 10
9.312500
 20
11.284375
 30
0.0
 10
7.384375
 20
11.284375
 30
0.0
 10
7.384375
 20
10.490625
 30
0.0
  0
LWPOLYLINE
  5
124
100
AcDbEntity
  8
0
 62
7
100
AcDbPolyline
 90
5
 70
0
 10
7.384375
 20
9.356250
 30
0.0
 10
9.312500
 20
9.356250
 30
0.0
 10
9.312500
 20
10.150000
 30
0.0
 10
7.384375
 20
10.150000
 30
0.0
 10
7.384375
 20
9.356250
 30
0.0
  0
LWPOLYLINE
  5
125
100
AcDbEntity
  8
0
 62
7
100
AcDbPolyline
 90
5
 70
0
 10
7.384375
 20
8.221875
 30
0.0
 10
9.312500
 20
8.221875
 30
0.0
 10
9.312500
 20
9.015625
 30
0.0
 10
7.384375
 20
9.015625
 30
0.0
 10
7.384375
 20
8.221875
 30
0.0
  0
LWPOLYLINE
  5
126
100
AcDbEntity
  8
0
 62
7
100
AcDbPolyline
 90
5
 70
0
 10
16.340625
 20
8.221875
 30
0.0
 10
18.268750
 20
8.221875
 30
0.0
 10
18.268750
 20
9.015625
 30
0.0
 10
16.340625
 20
9.015625
 30
0.0
 10
16.340625
 20
8.221875
 30
0.0
  0
LWPOLYLINE
  5
127
100
AcDbEntity
  8
0
 62
7
100
AcDbPolyline
 90
5
 70
0
 10
16.340625
 20
9.356250
 30
0.0
 10
18.268750
 20
9.356250
 30
0.0
 10
18.268750
 20
10.150000
 30
0.0
 10
16.340625
 20
10.150000
 30
0.0
 10
16.340625
 20
9.356250
 30
0.0
  0
LWPOLYLINE
  5
128
100
AcDbEntity
  8
0
 62
7
100
AcDbPolyline
 90
5
 70
0
 10
16.340625
 20
10.490625
 30
0.0
 10
18.268750
 20
10.490625
 30
0.0
 10
18.268750
 20
11.284375
 30
0.0
 10
16.340625
 20
11.284375
 30
0.0
 10
16.340625
 20
10.490625
 30
0.0
  0
LWPOLYLINE
  5
129
100
AcDbEntity
  8
0
 62
7
100
AcDbPolyline
 90
5
 70
0
 10
16.340625
 20
11.625000
 30
0.0
 10
18.268750
 20
11.625000
 30
0.0
 10
18.268750
 20
12.418750
 30
0.0
 10
16.340625
 20
12.418750
 30
0.0
 10
16.340625
 20
11.625000
 30
0.0
  0
LWPOLYLINE
  5
12a
100
AcDbEntity
  8
0
 62
7
100
AcDbPolyline
 90
5
 70
0
 10
16.340625
 20
12.762500
 30
0.0
 10
18.268750
 20
12.762500
 30
0.0
 10
18.268750
 20
13.556250
 30
0.0
 10
16.340625
 20
13.556250
 30
0.0
 10
16.340625
 20
12.762500
 30
0.0
  0
LWPOLYLINE
  5
12b
100
AcDbEntity
  8
0
 62
7
100
AcDbPolyline
 90
5
 70
0
 10
16.340625
 20
13.896875
 30
0.0
 10
18.268750
 20
13.896875
 30
0.0
 10
18.268750
 20
14.690625
 30
0.0
 10
16.340625
 20
14.690625
 30
0.0
 10
16.340625
 20
13.896875
 30
0.0
  0
LWPOLYLINE
  5
12c
100
AcDbEntity
  8
0
 62
7
100
AcDbPolyline
 90
5
 70
0
 10
1.309375
 20
16.406250
 30
0.0
 10
4.190625
 20
16.406250
 30
0.0
 10
4.190625
 20
18.593750
 30
0.0
 10
1.309375
 20
18.593750
 30
0.0
 10
1.309375
 20
16.406250
 30
0.0
  0
LWPOLYLINE
  5
12d
100
AcDbEntity
  8
0
 62
7
100
AcDbPolyline
 90
5
 70
0
 10
1.309375
 20
13.528125
 30
0.0
 10
4.190625
 20
13.528125
 30
0.0
 10
4.190625
 20
15.715625
 30
0.0
 10
1.309375
 20
15.715625
 30
0.0
 10
1.309375
 20
13.528125
 30
0.0
  0
LWPOLYLINE
  5
12e
100
AcDbEntity
  8
0
 62
7
100
AcDbPolyline
 90
5
 70
0
 10
1.309375
 20
10.646875
 30
0.0
 10
4.190625
 20
10.646875
 30
0.0
 10
4.190625
 20
12.834375
 30
0.0
 10
1.309375
 20
12.834375
 30
0.0
 10
1.309375
 20
10.646875
 30
0.0
  0
LWPOLYLINE
  5
12f
100
AcDbEntity
  8
0
 62
7
100
AcDbPolyline
 90
5
 70
0
 10
15.496875
 20
20.334375
 30
0.0
 10
17.306250
 20
20.334375
 30
0.0
 10
17.306250
 20
22.143750
 30
0.0
 10
15.496875
 20
22.143750
 30
0.0
 10
15.496875
 20
20.334375
 30
0.0
  0
LWPOLYLINE
  5
130
100
AcDbEntity
  8
0
 62
7
100
AcDbPolyline
 90
5
 70
0
 10
12.100000
 20
20.334375
 30
0.0
 10
13.909375
 20
20.334375
 30
0.0
 10
13.909375
 20
22.143750
 30
0.0
 10
12.100000
 20
22.143750
 30
0.0
 10
12.100000
 20
20.334375
 30
0.0
  0
ENDSEC
  0
SECTION
  2
OBJECTS
  0
DICTIONARY
  5
C
330
0
100
AcDbDictionary
  3
ACAD_GROUP
350
D
  3
ACAD_MLINESTYLE
350
17
  0
DICTIONARY
  5
D
330
C
100
AcDbDictionary
  0
DICTIONARY
  5
1A
330
C
100
AcDbDictionary
  0
DICTIONARY
  5
17
330
C
100
AcDbDictionary
  3
STANDARD
350
18
  0
DICTIONARY
  5
19
330
C
100
AcDbDictionary
  0
ENDSEC
  0
EOF
