<?xml version="1.0" encoding="UTF-8" standalone="no"?>
<!-- Created with Inkscape (http://www.inkscape.org/) -->

<svg
   xmlns:dc="http://purl.org/dc/elements/1.1/"
   xmlns:cc="http://creativecommons.org/ns#"
   xmlns:rdf="http://www.w3.org/1999/02/22-rdf-syntax-ns#"
   xmlns:svg="http://www.w3.org/2000/svg"
   xmlns="http://www.w3.org/2000/svg"
   version="1.1"
   width="36pt"
   height="23pt"
   viewBox="0 0 36 23"
   id="svg2">
  <metadata
     id="metadata107">
    <rdf:RDF>
      <cc:Work
         rdf:about="">
        <dc:format>image/svg+xml</dc:format>
        <dc:type
           rdf:resource="http://purl.org/dc/dcmitype/StillImage" />
        <dc:title></dc:title>
      </cc:Work>
    </rdf:RDF>
  </metadata>
  <defs
     id="defs105" />
  <g
     id="surface7258">
    <path
       d="m 30.796875,3.203125 3.601563,0 0,-2.734375 -3.601563,0 z m 0,0"
       id="path5"
       style="fill:#7373de;fill-opacity:1;fill-rule:evenodd;stroke:none" />
    <path
       d="m 30.796875,6.800781 3.601563,0 0,-2.734375 -3.601563,0 z m 0,0"
       id="path7"
       style="fill:#7373de;fill-opacity:1;fill-rule:evenodd;stroke:none" />
    <path
       d="m 30.796875,10.402344 3.601563,0 0,-2.734375 -3.601563,0 z m 0,0"
       id="path9"
       style="fill:#7373de;fill-opacity:1;fill-rule:evenodd;stroke:none" />
    <path
       d="m 30.796875,14.722656 3.601563,0 0,-2.734375 -3.601563,0 z m 0,0"
       id="path11"
       style="fill:#7373de;fill-opacity:1;fill-rule:evenodd;stroke:none" />
    <path
       d="m 30.796875,18.320313 3.601563,0 0,-2.734375 -3.601563,0 z m 0,0"
       id="path13"
       style="fill:#7373de;fill-opacity:1;fill-rule:evenodd;stroke:none" />
    <path
       d="m 30.796875,21.921875 3.601563,0 0,-2.734375 -3.601563,0 z m 0,0"
       id="path15"
       style="fill:#7373de;fill-opacity:1;fill-rule:evenodd;stroke:none" />
    <path
       d="m 6.546875,15.523438 1.699219,0 0,-1.128907 -1.699219,0 z m 0,0"
       id="path17"
       style="fill:#7373de;fill-opacity:1;fill-rule:evenodd;stroke:none" />
    <path
       d="m 6.546875,18.074219 1.699219,0 0,-1.128906 -1.699219,0 z m 0,0"
       id="path19"
       style="fill:#7373de;fill-opacity:1;fill-rule:evenodd;stroke:none" />
    <path
       d="m 25.988281,18.792969 1.699219,0 0,-1.128906 -1.699219,0 z m 0,0"
       id="path21"
       style="fill:#7373de;fill-opacity:1;fill-rule:evenodd;stroke:none" />
    <path
       d="m 25.988281,16.246094 1.699219,0 0,-1.128906 -1.699219,0 z m 0,0"
       id="path23"
       style="fill:#7373de;fill-opacity:1;fill-rule:evenodd;stroke:none" />
    <path
       d="m 2.226563,4.035156 1.699218,0 0,-1.128906 -1.699218,0 z m 0,0"
       id="path25"
       style="fill:#7373de;fill-opacity:1;fill-rule:evenodd;stroke:none" />
    <path
       d="m 2.226563,1.484375 1.699218,0 0,-1.128906 -1.699218,0 z m 0,0"
       id="path27"
       style="fill:#7373de;fill-opacity:1;fill-rule:evenodd;stroke:none" />
    <path
       d="m 6.1875,4.035156 1.699219,0 0,-1.128906 -1.699219,0 z m 0,0"
       id="path29"
       style="fill:#7373de;fill-opacity:1;fill-rule:evenodd;stroke:none" />
    <path
       d="m 6.1875,1.484375 1.699219,0 0,-1.128906 -1.699219,0 z m 0,0"
       id="path31"
       style="fill:#7373de;fill-opacity:1;fill-rule:evenodd;stroke:none" />
    <path
       d="m 22.75,5.804688 1.699219,0 0,-1.128907 -1.699219,0 z m 0,0"
       id="path33"
       style="fill:#7373de;fill-opacity:1;fill-rule:evenodd;stroke:none" />
    <path
       d="m 22.75,8.351563 1.699219,0 0,-1.128907 -1.699219,0 z m 0,0"
       id="path35"
       style="fill:#7373de;fill-opacity:1;fill-rule:evenodd;stroke:none" />
    <path
       d="m 25.988281,10.84375 1.699219,0 0,-1.128906 -1.699219,0 z m 0,0"
       id="path37"
       style="fill:#7373de;fill-opacity:1;fill-rule:evenodd;stroke:none" />
    <path
       d="m 25.988281,13.394531 1.699219,0 0,-1.128906 -1.699219,0 z m 0,0"
       id="path39"
       style="fill:#7373de;fill-opacity:1;fill-rule:evenodd;stroke:none" />
    <path
       d="m 10.148438,2.925781 1.699218,0 0,-1.128906 -1.699218,0 z m 0,0"
       id="path41"
       style="fill:#7373de;fill-opacity:1;fill-rule:evenodd;stroke:none" />
    <path
       d="m 10.148438,5.472656 1.699218,0 0,-1.128906 -1.699218,0 z m 0,0"
       id="path43"
       style="fill:#7373de;fill-opacity:1;fill-rule:evenodd;stroke:none" />
    <path
       d="m 19.085938,10.035156 0.992187,0 0,-2.410156 -0.992187,0 z m 0,0"
       id="path45"
       style="fill:#7373de;fill-opacity:1;fill-rule:evenodd;stroke:none" />
    <path
       d="m 17.664063,10.035156 0.992187,0 0,-2.410156 -0.992187,0 z m 0,0"
       id="path47"
       style="fill:#7373de;fill-opacity:1;fill-rule:evenodd;stroke:none" />
    <path
       d="m 16.246094,10.035156 0.992187,0 0,-2.410156 -0.992187,0 z m 0,0"
       id="path49"
       style="fill:#7373de;fill-opacity:1;fill-rule:evenodd;stroke:none" />
    <path
       d="m 14.828125,10.035156 0.992188,0 0,-2.410156 -0.992188,0 z m 0,0"
       id="path51"
       style="fill:#7373de;fill-opacity:1;fill-rule:evenodd;stroke:none" />
    <path
       d="m 13.410156,10.035156 0.992188,0 0,-2.410156 -0.992188,0 z m 0,0"
       id="path53"
       style="fill:#7373de;fill-opacity:1;fill-rule:evenodd;stroke:none" />
    <path
       d="m 11.992188,10.035156 0.992187,0 0,-2.410156 -0.992187,0 z m 0,0"
       id="path55"
       style="fill:#7373de;fill-opacity:1;fill-rule:evenodd;stroke:none" />
    <path
       d="m 11.992188,21.234375 0.992187,0 0,-2.410156 -0.992187,0 z m 0,0"
       id="path57"
       style="fill:#7373de;fill-opacity:1;fill-rule:evenodd;stroke:none" />
    <path
       d="m 13.410156,21.234375 0.992188,0 0,-2.410156 -0.992188,0 z m 0,0"
       id="path59"
       style="fill:#7373de;fill-opacity:1;fill-rule:evenodd;stroke:none" />
    <path
       d="m 14.828125,21.234375 0.992188,0 0,-2.410156 -0.992188,0 z m 0,0"
       id="path61"
       style="fill:#7373de;fill-opacity:1;fill-rule:evenodd;stroke:none" />
    <path
       d="m 16.246094,21.234375 0.992187,0 0,-2.410156 -0.992187,0 z m 0,0"
       id="path63"
       style="fill:#7373de;fill-opacity:1;fill-rule:evenodd;stroke:none" />
    <path
       d="m 17.664063,21.234375 0.992187,0 0,-2.410156 -0.992187,0 z m 0,0"
       id="path65"
       style="fill:#7373de;fill-opacity:1;fill-rule:evenodd;stroke:none" />
    <path
       d="m 19.085938,21.234375 0.992187,0 0,-2.410156 -0.992187,0 z m 0,0"
       id="path67"
       style="fill:#7373de;fill-opacity:1;fill-rule:evenodd;stroke:none" />
    <path
       d="m 9.230469,11.378906 2.410156,0 0,-0.992187 -2.410156,0 z m 0,0"
       id="path69"
       style="fill:#7373de;fill-opacity:1;fill-rule:evenodd;stroke:none" />
    <path
       d="m 9.230469,12.796875 2.410156,0 0,-0.992187 -2.410156,0 z m 0,0"
       id="path71"
       style="fill:#7373de;fill-opacity:1;fill-rule:evenodd;stroke:none" />
    <path
       d="m 9.230469,14.21875 2.410156,0 0,-0.992187 -2.410156,0 z m 0,0"
       id="path73"
       style="fill:#7373de;fill-opacity:1;fill-rule:evenodd;stroke:none" />
    <path
       d="m 9.230469,15.636719 2.410156,0 0,-0.992188 -2.410156,0 z m 0,0"
       id="path75"
       style="fill:#7373de;fill-opacity:1;fill-rule:evenodd;stroke:none" />
    <path
       d="m 9.230469,17.054688 2.410156,0 0,-0.992188 -2.410156,0 z m 0,0"
       id="path77"
       style="fill:#7373de;fill-opacity:1;fill-rule:evenodd;stroke:none" />
    <path
       d="m 9.230469,18.472656 2.410156,0 0,-0.992187 -2.410156,0 z m 0,0"
       id="path79"
       style="fill:#7373de;fill-opacity:1;fill-rule:evenodd;stroke:none" />
    <path
       d="m 20.425781,18.472656 2.410157,0 0,-0.992187 -2.410157,0 z m 0,0"
       id="path81"
       style="fill:#7373de;fill-opacity:1;fill-rule:evenodd;stroke:none" />
    <path
       d="m 20.425781,17.054688 2.410157,0 0,-0.992188 -2.410157,0 z m 0,0"
       id="path83"
       style="fill:#7373de;fill-opacity:1;fill-rule:evenodd;stroke:none" />
    <path
       d="m 20.425781,15.636719 2.410157,0 0,-0.992188 -2.410157,0 z m 0,0"
       id="path85"
       style="fill:#7373de;fill-opacity:1;fill-rule:evenodd;stroke:none" />
    <path
       d="m 20.425781,14.21875 2.410157,0 0,-0.992187 -2.410157,0 z m 0,0"
       id="path87"
       style="fill:#7373de;fill-opacity:1;fill-rule:evenodd;stroke:none" />
    <path
       d="m 20.425781,12.796875 2.410157,0 0,-0.992187 -2.410157,0 z m 0,0"
       id="path89"
       style="fill:#7373de;fill-opacity:1;fill-rule:evenodd;stroke:none" />
    <path
       d="m 20.425781,11.378906 2.410157,0 0,-0.992187 -2.410157,0 z m 0,0"
       id="path91"
       style="fill:#7373de;fill-opacity:1;fill-rule:evenodd;stroke:none" />
    <path
       d="m 1.636719,8.242188 3.601562,0 0,-2.734375 -3.601562,0 z m 0,0"
       id="path93"
       style="fill:#7373de;fill-opacity:1;fill-rule:evenodd;stroke:none" />
    <path
       d="m 1.636719,11.839844 3.601562,0 0,-2.734375 -3.601562,0 z m 0,0"
       id="path95"
       style="fill:#7373de;fill-opacity:1;fill-rule:evenodd;stroke:none" />
    <path
       d="m 1.636719,15.441406 3.601562,0 0,-2.734375 -3.601562,0 z m 0,0"
       id="path97"
       style="fill:#7373de;fill-opacity:1;fill-rule:evenodd;stroke:none" />
    <path
       d="m 19.371094,3.332031 2.261719,0 0,-2.261718 -2.261719,0 z m 0,0"
       id="path99"
       style="fill:#7373de;fill-opacity:1;fill-rule:evenodd;stroke:none" />
    <path
       d="m 15.125,3.332031 2.261719,0 0,-2.261718 -2.261719,0 z m 0,0"
       id="path101"
       style="fill:#7373de;fill-opacity:1;fill-rule:evenodd;stroke:none" />
  </g>
</svg>
