<?xml version="1.0" encoding="UTF-8"?>
<svg xmlns="http://www.w3.org/2000/svg" xmlns:xlink="http://www.w3.org/1999/xlink" width="35pt" height="23pt" viewBox="0 0 35 23" version="1.1">
<g id="surface31404">
<path style=" stroke:none;fill-rule:evenodd;fill:rgb(75.686275%,0%,87.843137%);fill-opacity:1;" d="M 30.78125 3.21875 L 34.019531 3.21875 L 34.019531 0.84375 L 30.78125 0.84375 Z M 30.78125 3.21875 "/>
<path style=" stroke:none;fill-rule:evenodd;fill:rgb(75.686275%,0%,87.843137%);fill-opacity:1;" d="M 30.78125 6.820313 L 34.019531 6.820313 L 34.019531 4.445313 L 30.78125 4.445313 Z M 30.78125 6.820313 "/>
<path style=" stroke:none;fill-rule:evenodd;fill:rgb(75.686275%,0%,87.843137%);fill-opacity:1;" d="M 30.78125 10.417969 L 34.019531 10.417969 L 34.019531 8.042969 L 30.78125 8.042969 Z M 30.78125 10.417969 "/>
<path style=" stroke:none;fill-rule:evenodd;fill:rgb(75.686275%,0%,87.843137%);fill-opacity:1;" d="M 30.78125 14.738281 L 34.019531 14.738281 L 34.019531 12.363281 L 30.78125 12.363281 Z M 30.78125 14.738281 "/>
<path style=" stroke:none;fill-rule:evenodd;fill:rgb(75.686275%,0%,87.843137%);fill-opacity:1;" d="M 30.78125 18.339844 L 34.019531 18.339844 L 34.019531 15.964844 L 30.78125 15.964844 Z M 30.78125 18.339844 "/>
<path style=" stroke:none;fill-rule:evenodd;fill:rgb(75.686275%,0%,87.843137%);fill-opacity:1;" d="M 30.78125 21.941406 L 34.019531 21.941406 L 34.019531 19.566406 L 30.78125 19.566406 Z M 30.78125 21.941406 "/>
<path style=" stroke:none;fill-rule:evenodd;fill:rgb(75.686275%,0%,87.843137%);fill-opacity:1;" d="M 6.53125 15.542969 L 7.871094 15.542969 L 7.871094 14.773438 L 6.53125 14.773438 Z M 6.53125 15.542969 "/>
<path style=" stroke:none;fill-rule:evenodd;fill:rgb(75.686275%,0%,87.843137%);fill-opacity:1;" d="M 6.53125 18.089844 L 7.871094 18.089844 L 7.871094 17.320313 L 6.53125 17.320313 Z M 6.53125 18.089844 "/>
<path style=" stroke:none;fill-rule:evenodd;fill:rgb(75.686275%,0%,87.843137%);fill-opacity:1;" d="M 25.96875 18.8125 L 27.308594 18.8125 L 27.308594 18.042969 L 25.96875 18.042969 Z M 25.96875 18.8125 "/>
<path style=" stroke:none;fill-rule:evenodd;fill:rgb(75.686275%,0%,87.843137%);fill-opacity:1;" d="M 25.96875 16.261719 L 27.308594 16.261719 L 27.308594 15.492188 L 25.96875 15.492188 Z M 25.96875 16.261719 "/>
<path style=" stroke:none;fill-rule:evenodd;fill:rgb(75.686275%,0%,87.843137%);fill-opacity:1;" d="M 2.210938 4.050781 L 3.550781 4.050781 L 3.550781 3.28125 L 2.210938 3.28125 Z M 2.210938 4.050781 "/>
<path style=" stroke:none;fill-rule:evenodd;fill:rgb(75.686275%,0%,87.843137%);fill-opacity:1;" d="M 2.210938 1.503906 L 3.550781 1.503906 L 3.550781 0.734375 L 2.210938 0.734375 Z M 2.210938 1.503906 "/>
<path style=" stroke:none;fill-rule:evenodd;fill:rgb(75.686275%,0%,87.843137%);fill-opacity:1;" d="M 6.171875 4.050781 L 7.511719 4.050781 L 7.511719 3.28125 L 6.171875 3.28125 Z M 6.171875 4.050781 "/>
<path style=" stroke:none;fill-rule:evenodd;fill:rgb(75.686275%,0%,87.843137%);fill-opacity:1;" d="M 6.171875 1.503906 L 7.511719 1.503906 L 7.511719 0.734375 L 6.171875 0.734375 Z M 6.171875 1.503906 "/>
<path style=" stroke:none;fill-rule:evenodd;fill:rgb(75.686275%,0%,87.843137%);fill-opacity:1;" d="M 22.730469 5.824219 L 24.070313 5.824219 L 24.070313 5.054688 L 22.730469 5.054688 Z M 22.730469 5.824219 "/>
<path style=" stroke:none;fill-rule:evenodd;fill:rgb(75.686275%,0%,87.843137%);fill-opacity:1;" d="M 22.730469 8.371094 L 24.070313 8.371094 L 24.070313 7.601563 L 22.730469 7.601563 Z M 22.730469 8.371094 "/>
<path style=" stroke:none;fill-rule:evenodd;fill:rgb(75.686275%,0%,87.843137%);fill-opacity:1;" d="M 25.96875 10.863281 L 27.308594 10.863281 L 27.308594 10.09375 L 25.96875 10.09375 Z M 25.96875 10.863281 "/>
<path style=" stroke:none;fill-rule:evenodd;fill:rgb(75.686275%,0%,87.843137%);fill-opacity:1;" d="M 25.96875 13.410156 L 27.308594 13.410156 L 27.308594 12.640625 L 25.96875 12.640625 Z M 25.96875 13.410156 "/>
<path style=" stroke:none;fill-rule:evenodd;fill:rgb(75.686275%,0%,87.843137%);fill-opacity:1;" d="M 10.128906 2.941406 L 11.46875 2.941406 L 11.46875 2.171875 L 10.128906 2.171875 Z M 10.128906 2.941406 "/>
<path style=" stroke:none;fill-rule:evenodd;fill:rgb(75.686275%,0%,87.843137%);fill-opacity:1;" d="M 10.128906 5.492188 L 11.46875 5.492188 L 11.46875 4.722656 L 10.128906 4.722656 Z M 10.128906 5.492188 "/>
<path style=" stroke:none;fill-rule:evenodd;fill:rgb(75.686275%,0%,87.843137%);fill-opacity:1;" d="M 19.066406 10.054688 L 19.699219 10.054688 L 19.699219 8.003906 L 19.066406 8.003906 Z M 19.066406 10.054688 "/>
<path style=" stroke:none;fill-rule:evenodd;fill:rgb(75.686275%,0%,87.843137%);fill-opacity:1;" d="M 17.648438 10.054688 L 18.28125 10.054688 L 18.28125 8.003906 L 17.648438 8.003906 Z M 17.648438 10.054688 "/>
<path style=" stroke:none;fill-rule:evenodd;fill:rgb(75.686275%,0%,87.843137%);fill-opacity:1;" d="M 16.230469 10.054688 L 16.863281 10.054688 L 16.863281 8.003906 L 16.230469 8.003906 Z M 16.230469 10.054688 "/>
<path style=" stroke:none;fill-rule:evenodd;fill:rgb(75.686275%,0%,87.843137%);fill-opacity:1;" d="M 14.8125 10.054688 L 15.445313 10.054688 L 15.445313 8.003906 L 14.8125 8.003906 Z M 14.8125 10.054688 "/>
<path style=" stroke:none;fill-rule:evenodd;fill:rgb(75.686275%,0%,87.843137%);fill-opacity:1;" d="M 13.394531 10.054688 L 14.027344 10.054688 L 14.027344 8.003906 L 13.394531 8.003906 Z M 13.394531 10.054688 "/>
<path style=" stroke:none;fill-rule:evenodd;fill:rgb(75.686275%,0%,87.843137%);fill-opacity:1;" d="M 11.972656 10.054688 L 12.605469 10.054688 L 12.605469 8.003906 L 11.972656 8.003906 Z M 11.972656 10.054688 "/>
<path style=" stroke:none;fill-rule:evenodd;fill:rgb(75.686275%,0%,87.843137%);fill-opacity:1;" d="M 11.972656 21.25 L 12.605469 21.25 L 12.605469 19.199219 L 11.972656 19.199219 Z M 11.972656 21.25 "/>
<path style=" stroke:none;fill-rule:evenodd;fill:rgb(75.686275%,0%,87.843137%);fill-opacity:1;" d="M 13.394531 21.25 L 14.027344 21.25 L 14.027344 19.199219 L 13.394531 19.199219 Z M 13.394531 21.25 "/>
<path style=" stroke:none;fill-rule:evenodd;fill:rgb(75.686275%,0%,87.843137%);fill-opacity:1;" d="M 14.8125 21.25 L 15.445313 21.25 L 15.445313 19.199219 L 14.8125 19.199219 Z M 14.8125 21.25 "/>
<path style=" stroke:none;fill-rule:evenodd;fill:rgb(75.686275%,0%,87.843137%);fill-opacity:1;" d="M 16.230469 21.25 L 16.863281 21.25 L 16.863281 19.199219 L 16.230469 19.199219 Z M 16.230469 21.25 "/>
<path style=" stroke:none;fill-rule:evenodd;fill:rgb(75.686275%,0%,87.843137%);fill-opacity:1;" d="M 17.648438 21.25 L 18.28125 21.25 L 18.28125 19.199219 L 17.648438 19.199219 Z M 17.648438 21.25 "/>
<path style=" stroke:none;fill-rule:evenodd;fill:rgb(75.686275%,0%,87.843137%);fill-opacity:1;" d="M 19.066406 21.25 L 19.699219 21.25 L 19.699219 19.199219 L 19.066406 19.199219 Z M 19.066406 21.25 "/>
<path style=" stroke:none;fill-rule:evenodd;fill:rgb(75.686275%,0%,87.843137%);fill-opacity:1;" d="M 9.214844 11.398438 L 11.265625 11.398438 L 11.265625 10.765625 L 9.214844 10.765625 Z M 9.214844 11.398438 "/>
<path style=" stroke:none;fill-rule:evenodd;fill:rgb(75.686275%,0%,87.843137%);fill-opacity:1;" d="M 9.214844 12.816406 L 11.265625 12.816406 L 11.265625 12.183594 L 9.214844 12.183594 Z M 9.214844 12.816406 "/>
<path style=" stroke:none;fill-rule:evenodd;fill:rgb(75.686275%,0%,87.843137%);fill-opacity:1;" d="M 9.214844 14.234375 L 11.265625 14.234375 L 11.265625 13.601563 L 9.214844 13.601563 Z M 9.214844 14.234375 "/>
<path style=" stroke:none;fill-rule:evenodd;fill:rgb(75.686275%,0%,87.843137%);fill-opacity:1;" d="M 9.214844 15.652344 L 11.265625 15.652344 L 11.265625 15.019531 L 9.214844 15.019531 Z M 9.214844 15.652344 "/>
<path style=" stroke:none;fill-rule:evenodd;fill:rgb(75.686275%,0%,87.843137%);fill-opacity:1;" d="M 9.214844 17.070313 L 11.265625 17.070313 L 11.265625 16.4375 L 9.214844 16.4375 Z M 9.214844 17.070313 "/>
<path style=" stroke:none;fill-rule:evenodd;fill:rgb(75.686275%,0%,87.843137%);fill-opacity:1;" d="M 9.214844 18.488281 L 11.265625 18.488281 L 11.265625 17.855469 L 9.214844 17.855469 Z M 9.214844 18.488281 "/>
<path style=" stroke:none;fill-rule:evenodd;fill:rgb(75.686275%,0%,87.843137%);fill-opacity:1;" d="M 20.410156 18.488281 L 22.460938 18.488281 L 22.460938 17.855469 L 20.410156 17.855469 Z M 20.410156 18.488281 "/>
<path style=" stroke:none;fill-rule:evenodd;fill:rgb(75.686275%,0%,87.843137%);fill-opacity:1;" d="M 20.410156 17.070313 L 22.460938 17.070313 L 22.460938 16.4375 L 20.410156 16.4375 Z M 20.410156 17.070313 "/>
<path style=" stroke:none;fill-rule:evenodd;fill:rgb(75.686275%,0%,87.843137%);fill-opacity:1;" d="M 20.410156 15.652344 L 22.460938 15.652344 L 22.460938 15.019531 L 20.410156 15.019531 Z M 20.410156 15.652344 "/>
<path style=" stroke:none;fill-rule:evenodd;fill:rgb(75.686275%,0%,87.843137%);fill-opacity:1;" d="M 20.410156 14.234375 L 22.460938 14.234375 L 22.460938 13.601563 L 20.410156 13.601563 Z M 20.410156 14.234375 "/>
<path style=" stroke:none;fill-rule:evenodd;fill:rgb(75.686275%,0%,87.843137%);fill-opacity:1;" d="M 20.410156 12.816406 L 22.460938 12.816406 L 22.460938 12.183594 L 20.410156 12.183594 Z M 20.410156 12.816406 "/>
<path style=" stroke:none;fill-rule:evenodd;fill:rgb(75.686275%,0%,87.843137%);fill-opacity:1;" d="M 20.410156 11.398438 L 22.460938 11.398438 L 22.460938 10.765625 L 20.410156 10.765625 Z M 20.410156 11.398438 "/>
<path style=" stroke:none;fill-rule:evenodd;fill:rgb(75.686275%,0%,87.843137%);fill-opacity:1;" d="M 1.621094 8.257813 L 4.859375 8.257813 L 4.859375 5.882813 L 1.621094 5.882813 Z M 1.621094 8.257813 "/>
<path style=" stroke:none;fill-rule:evenodd;fill:rgb(75.686275%,0%,87.843137%);fill-opacity:1;" d="M 1.621094 11.859375 L 4.859375 11.859375 L 4.859375 9.484375 L 1.621094 9.484375 Z M 1.621094 11.859375 "/>
<path style=" stroke:none;fill-rule:evenodd;fill:rgb(75.686275%,0%,87.843137%);fill-opacity:1;" d="M 1.621094 15.460938 L 4.859375 15.460938 L 4.859375 13.085938 L 1.621094 13.085938 Z M 1.621094 15.460938 "/>
<path style=" stroke:none;fill-rule:evenodd;fill:rgb(75.686275%,0%,87.843137%);fill-opacity:1;" d="M 19.355469 3.347656 L 21.257813 3.347656 L 21.257813 1.445313 L 19.355469 1.445313 Z M 19.355469 3.347656 "/>
<path style=" stroke:none;fill-rule:evenodd;fill:rgb(75.686275%,0%,87.843137%);fill-opacity:1;" d="M 15.105469 3.347656 L 17.007813 3.347656 L 17.007813 1.445313 L 15.105469 1.445313 Z M 15.105469 3.347656 "/>
</g>
</svg>
